<svg xmlns="http://www.w3.org/2000/svg" version="1.1" xmlns:xlink="http://www.w3.org/1999/xlink" width="512" height="512" x="0" y="0" viewBox="0 0 300 300" style="enable-background:new 0 0 512 512" xml:space="preserve" class=""><g><path d="M79.473 140.271h39c1.93 0 1.933-3 0-3h-39c-1.93 0-1.934 3 0 3zM43.842 98.106c2.005-4.21 2.983-9.742-1.046-13.149-2.868-2.425-7.585-1.763-9.248 1.735-.824 1.734 1.761 3.258 2.59 1.514 1.187-2.493 4.301-2.025 5.638.089 1.636 2.585.686 5.755-.524 8.296-.826 1.735 1.76 3.259 2.59 1.515zM84.62 96.714c2.004-4.209 2.982-9.742-1.047-13.148-2.868-2.426-7.585-1.763-9.248 1.734-.824 1.735 1.761 3.259 2.591 1.515 1.186-2.494 4.3-2.025 5.637.088 1.636 2.585.686 5.755-.524 8.297-.826 1.735 1.76 3.259 2.59 1.514zM132.543 95.186c2.005-4.21 2.983-9.742-1.045-13.149-2.87-2.425-7.585-1.762-9.248 1.735-.825 1.734 1.76 3.258 2.59 1.514 1.186-2.493 4.3-2.025 5.637.089 1.636 2.585.687 5.755-.524 8.297-.826 1.734 1.76 3.258 2.59 1.514z" fill="#7c3aed" opacity="1" data-original="#000000" class=""></path><path d="M50.571 89.867c-1.919.112-1.932 3.113 0 3 9.525-.555 19.05-.629 28.582-.252 1.931.076 1.928-2.924 0-3a292.478 292.478 0 0 0-28.582.252zM91.335 92.312c12.094-.376 24.191-.633 36.285-1.01 1.926-.06 1.934-3.06 0-3-12.094.377-24.19.634-36.285 1.01-1.925.06-1.934 3.06 0 3zM170.747 90.509c1.93.018 1.932-2.982 0-3-10.68-.104-21.348.572-32.022.8-1.928.042-1.935 3.042 0 3 10.674-.228 21.341-.904 32.022-.8zM61.214 111.76a861.735 861.735 0 0 0 58.182-2.982c1.91-.163 1.927-3.165 0-3a861.735 861.735 0 0 1-58.182 2.983c-1.928.034-1.935 3.034 0 3zM93.002 125.534c1.904-.275 1.094-3.166-.797-2.892-7.139 1.033-14.284 1.263-21.478.77-1.927-.133-1.918 2.868 0 3 7.477.512 14.86.196 22.275-.878zM101.36 190.837c.308 1.9 3.199 1.094 2.892-.798-.691-4.276-1.057-8.596-1.749-12.872-.308-1.9-3.199-1.094-2.893.798.692 4.276 1.058 8.596 1.75 12.872zM108.77 178.733c.869-.77 2.297-.637 3.29-.208 1.724.745 1.778 2.64 1.19 4.2-.881 2.33-3.492 3.708-5.211 5.368-.946.912-.221 2.553 1.06 2.56 3.264.019 6.525-.15 9.79-.132 1.93.01 1.933-2.99 0-3-1.966-.011-3.93.044-5.895.087 2.569-2.432 4.81-5.243 3.124-9.039-1.56-3.516-6.63-4.475-9.469-1.958-1.448 1.284.68 3.399 2.122 2.122z" fill="#7c3aed" opacity="1" data-original="#000000" class=""></path><path d="M276.355 207.167c-3.87-2.813-9.54-4.34-14.17-5.312-.012-.156-.015-.316-.033-.47-.08-.71-.418-1.205-1.1-1.446a879.55 879.55 0 0 0-17.489-5.965c-2.926-8.014-7.638-15.426-13.397-21.176-4.422-4.414-9.349-9.281-15.768-10.335-4.5-.738-6.207 1.308-6.175 4.484-3.424-2.57-6.709-2.906-9.203-2.062-.125-25.312-.212-50.556-5.451-75.455.125-.494.03-1.052-.296-1.44l-.004-.023c-.21-.96-1.061-1.221-1.793-1.002-27.638-20.565-57.126-38.513-84.34-59.67-.273-3.566-2.213-7.992-5.15-8.422-4.976-.73-7.733 4.405-7.687 9.37-1.04.356-25.626 25.635-71.543 63.587-.343.283-.293.655-.077.92a.663.663 0 0 0-.039.17c-2.618 4.825-1.908 11.76-.84 17.906 3.104 37.493 5.762 75.175 2.168 112.596-.52 5.419-.144 20.25-.12 20.287 1.301 2.016 3.623 3.293 4.068 3.266 2.065.64 4.244 2.191 4.498 4.488.005.047.028.082.04.125.034 2.142.074 4.283.126 6.421-.283.538.363 1.572 1.167 1.123 2.836-.189 5.273 2.494 6.619 4.704.099.163.233.25.375.3.138 1.332.257 2.663.404 3.995.043.383.313.605.612.68 3.475 1.583 4.833 7.212 5.286 7.77.406.858 1.176.734 1.998.683l4.497 3.932c.14-.006 132.937-6.479 139.963-6.273 1.931.056 1.93-2.944 0-3-47.907-1.393-95.825-.645-143.662 2.296-6.004-40.78-.154-102.134-7.245-151.323-1.511-10.48-3.102-22.911-11.792-29.348 2.797-.083 5.594-.158 8.39-.26 1.925-.071 1.934-3.072 0-3-4.083.15-12.202.33-12.765.426C49.795 71.298 72.495 51.088 94.444 30.08c.51 3.266 2.338 6.11 5.667 6.67 4.567.769 6.812-3.17 7.043-7.563 26.681 20.617 55.465 38.263 82.546 58.322h-11.754c.175-2.62-.513-5.178-2.757-7.076-2.869-2.425-7.585-1.762-9.248 1.735-.825 1.734 1.761 3.258 2.59 1.514 1.186-2.493 4.3-2.025 5.637.089 1.636 2.585.687 5.755-.523 8.297-.827 1.734 1.76 3.258 2.59 1.514.46-.968.863-2.007 1.167-3.073h13.331c5.258 25.199 5.164 50.739 5.297 76.35a6.033 6.033 0 0 0-1.15 2.043c-4.497-1.651-9.122 1.25-10.32 5.353-1.698-.56-3.729-.92-5.37-.209-.194-5.253.452-1.196-1.902-21.729.285-.742.016-1.713-.808-2.008-.524-.336-1.22-.371-1.71-.096-36.2-.008-72.395-.605-108.595-.6-.818 0-2.326.847-2.073 2.154 8.835 45.809 5.29 94.023 6.445 96.175.191.486.63.844 1.327.787.855-.07 1.71-.123 2.565-.19.955.823 1.853 1.78 2.784 2.482 30.159 3.087 32.081-7.448 104.925-4.938.82.029 1.588-.549 1.564-1.488a1073.07 1073.07 0 0 0-.898-24.173c2.183 2.913 6.407 6.232 8.539 7.224 2.308 1.08 5.342 1.928 8.565 2.493 1.282 13.882 2.453 27.774 3.194 41.697.103 1.92 3.103 1.932 3 0-.733-13.773-1.887-27.516-3.153-41.248 3.877.465 7.774.508 10.764.058-1.547 2.684.035 6.793 2.65 7.54h.01c1.279 2.343 10.352 14.929 11.923 17.085 1.823.224 4.089.568 6.073.836v.001c1.042 1.618 3.64.116 2.59-1.514-3.905-6.063-8.4-11.72-12.368-17.74 5.096-1.493 10.494-4.753 13.559-6.268 5.213-2.576 10.374-5.461 15.084-8.79 3.21 5.032 8.383 11.477 11.374 17.836.821 1.746 3.408.225 2.59-1.514-1.089-2.315-2.364-4.478-3.721-6.58 3.053 1.128 6.449 2.027 8.649.138 1.54-1.322 2.167-3.882 2.911-5.694 1.323-3.22 2.522-6.46 3.459-9.817 1.037-3.717 1.19-6.57-2.15-8.998zm-247.722 38.47c.335-26.451 1.716-52.92.774-79.373-1.205-33.79-5.037-46.283-6.21-58.007-.371-3.718-1.115-8.762.012-12.725 11.839 49.891 8.565 101.645 9.192 152.578-.978-1.137-2.32-1.976-3.768-2.472zm5.44 12.022c-1.263-53.824 3.146-108.74-9.2-161.604 19.943 40.526 7.32 81.53 15.588 165.317-1.622-2.01-3.823-3.645-6.389-3.713zM40.171 127.2c5.234 41.575 1.973 110.174 6.315 144.486-.966-1.761-2.22-3.346-3.903-4.136-9.543-86.947 4.568-131.376-17.097-173.614 12.208 4.943 13.248 21.85 14.685 33.264zm217.3 85.266c-2.353-1.966-8.275-.463-10.681.725.08-2.243-.015-4.501-.265-6.754 3.943.981 7.887 1.958 11.831 2.933a49.523 49.523 0 0 1-.885 3.096zm1.757-9.99c.063 1.712-.149 3.55-.537 5.432-4.124-1.02-8.247-2.04-12.369-3.067a53.032 53.032 0 0 0-1.59-7.317c4.845 1.61 9.679 3.257 14.496 4.951zm-66.918 9.06c-4.64-1.173-31.98-7.853-34.751-9.603l-1.02-4.707c2.083-.475 4.132-1.1 6.237-1.461h1.222a4147.176 4147.176 0 0 0 30.69 7.744c.884.965 1.71 1.963 2.368 3.017 3.318 5.323-.5 5.926-4.746 5.01zM67.293 152.615c7.348.002 14.695.03 22.043.07 1.047 5.247 1.836 10.522 2.451 15.817-.076.067-.157.12-.232.188a17.189 17.189 0 0 0-1.524 1.587H70.036a301.247 301.247 0 0 0-2.743-17.662zm107.097.598c2.482 21.793 1.218 17.71 1.835 21.9-2.517-.481-5.284-1.605-7.545-2.106-2.488-.55-4.232-.266-6.844.064a221.57 221.57 0 0 0-6.792.979c-.088-.758-.18-1.516-.275-2.273h20.113c.966 0 .967-1.5 0-1.5h-20.295a365.466 365.466 0 0 0-2.661-17.11c-.002-.01-.009-.016-.01-.027 7.49.042 14.982.07 22.474.073zM160.487 179.6c-.425.21-.672.773-.215 1.17 1.644 1.434 3.346 2.813 4.904 4.342-2.946.75-5.864 1.609-8.821 2.322-.782.189-.63 1.214-.015 1.422 1.932 1.867 3.955 3.633 5.898 5.487-.008.004-.012.01-.02.015-2.118.399-4.184 1.012-6.294 1.475-.484-.168-1.171.217-1.026.888l.878 4.053c-5.289-3.45-10.429-7.164-15.45-11.02 1.071-3.484 2.137-6.969 3.196-10.456 1.247-.463 15.653-3.122 20.548-3.48-1.21 1.244-2.55 2.377-3.583 3.782zm-4.331 40.774h-28.61c-.19-8.2-.535-16.411-1.081-24.608h17.396c15.837 11.416 10.113 7.337 12.073 8.73.187 5.292.256 10.585.222 15.878zm-40.403-48.598c7.652 7.013 11.197 16.378 1.728 22.49H97.176c-.684-.44-1.271-.851-2.078-1.558-.312-6.994-.748-13.978-1.455-20.932zm-21.38-1.5c5.61-4.367 13.591-3.955 19.46 0h-19.46zm34.59 11.243c-.942.353-1.62 1.728-.661 2.507 4.337 3.525 8.909 6.922 13.483 10.24h-15.428c-.118-1.7-.244-3.4-.38-5.099.544-2.445.18-5.213-.7-7.914a444.096 444.096 0 0 0-1.02-9.477h29.011c.105.835.207 1.671.304 2.508-11.394 1.89-9.846 1.718-24.608 7.235zm-4.251 10.644c.052.7.101 1.402.15 2.103h-2.203a8.557 8.557 0 0 0 2.053-2.103zm-1.395-15.44c-1.01-1.87-2.185-3.572-3.364-4.947h2.804c.196 1.647.383 3.296.56 4.947zm-8.658 19.043c-4.64 1.97-9.932 2-14.645 0zm5.858 0h4.452c.545 8.197.89 16.408 1.079 24.608H96.094c-.322-7.916-.525-15.85-.835-23.777 7.726 5.137 17.855 4.74 25.258-.831zm32.569-25.49h-29.01a395.92 395.92 0 0 0-2.502-17.358c9.654.08 19.307.158 28.961.214-.202.48 1.046 5.612 2.551 17.144zm-30.509 0h-4.069c-6.742-6.464-17.607-8.44-25.352-2.883-.59-4.92-1.335-9.823-2.297-14.701 9.734.055 19.468.133 29.202.213a390.8 390.8 0 0 1 2.516 17.37zm-30.375 2.056c.628 6.257 1.034 12.536 1.33 18.825-4.693-5.24-6.21-13.061-1.33-18.825zm1.53 23.434c.328 8.203.53 16.416.863 24.608-22.906 0-21.106-.022-21.346.04-.144-8.28-.422-16.554-.915-24.811a.686.686 0 0 0 .448.163zm85.897 20.549c.46 8.905.797 17.815 1.034 26.728-35.765-1.175-71.614-.275-107.284 2.574.03-7.919.02-15.849-.105-23.778.245.054-1.686.035 21.383.035.055 1.279.111 2.558.174 3.836.047.96 1.547.966 1.5 0-.063-1.278-.119-2.557-.174-3.836h29.924a709.01 709.01 0 0 1 .142 18.301c-.005.966 1.495.967 1.5 0 .03-6.085-.015-12.19-.143-18.301h28.565a383.88 383.88 0 0 1-.203 9.482c-.034.965 1.467.963 1.5 0 .112-3.161.17-6.322.203-9.482h11.617c.965 0 .967-1.5 0-1.5h-11.606c.033-4.985-.031-9.97-.195-14.954 3.92 2.02 6.728 1.967 19.796 5.349a21.86 21.86 0 0 0 2.372 5.546zm-15.337-22.023c-.019-.005-.034.001-.052-.002a.547.547 0 0 0-.289-.162c-.055-.526-.366-.515-5.773-5.61 2.794-.716 5.565-1.522 8.367-2.206a.699.699 0 0 0 .328.187c5.472 1.378 10.943 2.759 16.415 4.135.25.306.496.611.731.917 2.132 2.778 4.465 5.446 6.852 8.01.587.63 1.22 1.266 1.861 1.913a4009.61 4009.61 0 0 1-28.44-7.182zm2.98-9.24c-.05-.012-.092-.003-.139-.006a.686.686 0 0 0-.496-.254.682.682 0 0 0-.215-.565c-1.43-1.425-2.99-2.713-4.521-4.029 1.22-1.596 2.83-2.852 4.15-4.367 3.6.299 6.93 1.937 10.5 2.394-.093 1.26.138 2.637.676 3.938.984 2.378 2.708 4.48 4.424 6.512l-14.379-3.623zm-97.054-13.276h18.681c-4.707 7.07-2.85 16.496 3.422 22.49H72.782a.686.686 0 0 0-.514.213c-.472-7.588-1.136-15.159-2.05-22.703zm153.388 61.888c-.81.223-3.771 1.142-4.365.602-2.673-2.432 2.025-3.963 3.41-4.474.068-.025.125-.059.186-.09 1.067.04 2.137.064 3.216.044 1.927-.037 1.934-3.037 0-3-19.256.364-40.031-1.071-45.343-15.09 3.24.834 6.48 1.674 9.724 2.497.053.02.101.044.16.059.383.1.773.193 1.164.28.376.096.75.195 1.126.29.225.057.434.063.626.032 2.804.386 5.513.041 7.102-2.436.372-.269.62-.69.62-1.192 1.582-3.974-2.235-7.019-4.643-9.942-4.022-4.885-8.466-9.416-12.439-14.37-1.29-1.608-5.43-7.07-4.546-9.232a1.33 1.33 0 0 0 .108-.208c.395-.62 1.328-.88 3.073-.533 4.476.887 8.03 5.118 10.602 8.562 1.142 1.529 3.747.035 2.59-1.515-2.295-3.074-5.18-6.433-8.682-8.46.308-2.217 2.743-3.971 4.714-4.082 3.335-.187 5 3.061 12.02 10.677 1.311 1.423 3.429-.703 2.121-2.121-2.481-2.692-5.206-7.026-8.563-9.546.385-3.27 4.321-3.488 7.043-2.189 3.005 1.436 6.443 5.909 8.467 8.516 1.183 1.523 3.292-.614 2.122-2.121-1.044-1.345-2.148-2.803-3.353-4.185a1.566 1.566 0 0 0-.067-.41c-2.723-8.777 8.316-2.327 11.42.354 4.13 3.566 8.009 7.553 11.082 12.066 6.907 10.14 11.27 24.02 8.875 36.35-.366 1.886 2.525 2.694 2.893.797.233-1.2.404-2.413.527-3.631.396.22.89.263 1.404-.022 1.235-.686 2.984-1.208 4.418-1.22 2.58-.849 2.94.159 1.077 3.025-4.875 4.586-23.408 14.134-29.889 15.918zm51.764-17.487c-.967 3.221-1.915 6.85-3.55 9.81-1.787 3.235-2.751 3.815-5.833 2.907-1.81-.534-3.612-1.101-5.414-1.664-1.181-1.692-2.374-3.383-3.533-5.113 1.973-4.886 4.646-11.445 5.127-17.183 4.625 1.081 10.17 3.324 11.587 4.154 2.936 1.72 2.461 4.27 1.616 7.09z" fill="#7c3aed" opacity="1" data-original="#000000" class=""></path></g></svg>
