<svg xmlns="http://www.w3.org/2000/svg" version="1.1" xmlns:xlink="http://www.w3.org/1999/xlink" width="512" height="512" x="0" y="0" viewBox="0 0 300 300" style="enable-background:new 0 0 512 512" xml:space="preserve" class=""><g><path d="M24.27 170.232c1.62 3.392 3.739 6.885 6.204 9.054 4.414 3.883 11.61 6.826 17.45 9.601.475 5.088.869 10.186 1.19 15.29.06.942.742 1.469 1.539 1.45 2.247 1.622 4.494 3.25 6.741 4.88 8.86-1.73 17.96-3.55 27.1-5.3 19.51 9.139 33.22 16.43 50.69 22 12.02-15.56 26.108-32.17 38.289-50.664 3.902.267 6.185-1.742 4.77-7.683 4.648-6.076 9.216-12.21 13.72-18.378.024-.033.037-.066.058-.1 10.807-6.609.25-.528 41.407-21.708l.749-7.165c.963-.815.378-2.132-.624-2.539-4.327-1.758-8.357-4.548-10.262-6.44a186.16 186.16 0 0 1 5.31-3.237c.125-1.355.591-3.435.327-4.956.216-.19.43-.381.647-.57.923-.807.31-2.143-.662-2.507-4.369-1.64-8.414-4.125-11.45-7.62.1-1.35.319-2.69.67-4 .158-.14.318-.277.476-.417.897-.793.337-2.168-.662-2.506-5.085-1.725-8.83-4.133-12.157-8.042-.19-1.204-.38-2.408-.568-3.612.09-.211.19-.413.28-.627.391-.949-.248-1.608-1.041-1.755-.945-.413-10.78-2.471-23.887-8.557.02-1.276.05-2.554.11-3.828.094-2.26-1.413-5.174-2.928-8.34.011-.02.02-.045.033-.063.763-1.09-.498-2.557-1.694-2.203-6.14 1.82-12.164 1.996-18.225 1.333-2.69-1.724-5.363-3.475-8.06-5.186-.08-1.266-.154-2.375-.137-3.16.02-.966-1.48-.966-1.5 0-.016.71-.006 1.421.008 2.134-.47-.292-.942-.58-1.414-.869.179-2.448.356-11.3-3.95-9.837-1.99.676-2.13 4.296-2.368 6.196-7.415-3.974-11.772-5.147-19.906-8.191-.558-.215-1.18-.081-1.542.477-36.344 39.48-73.298 79.52-97.415 127.977a1.508 1.508 0 0 0-.155.904c-.533.904-.75 1.998-.46 3.3.471 2.12 1.724 3.917 3.299 5.464zm107.817 35.32c.597.289 1.332.269 1.818-.235 28.112-29.11 35.723-40.33 38.81-42.487.2.325.34.43 1.052 1.934-3.31 4.044-38.506 45.918-40.878 46.125-.754.066-12.778-6.559-21.755-10.402 1.265-.204 7.842-1.2 7.961-1.218 4.334 2.09 8.664 4.185 12.992 6.283zm46.396-46.637c-.924 1.149-1.839 2.306-2.768 3.45a35.68 35.68 0 0 0-.632-1.178 263.862 263.862 0 0 1 3.4-2.272zm-45.268 58.265c-10.898-4.162-23.534-9.735-34.21-14.643a698.435 698.435 0 0 1 10.06-1.717c3.88 1.36 3.57 2.223 24.026 11.814.293.137.671.142.908-.118 13.832-15.157 27.398-30.454 40.43-46.259.236.567.468 1.173.673 1.788-26.895 35.047-40.447 47.124-41.887 49.135zm-81.246-15.162c-.761-11.373-1.882-22.711-3.535-33.99 22.68 8.606 43.466 18.182 65.94 28.966-21.072 2.45-42.103-2.812-62.405 5.024zm-5.795-28.661c-5.19-2.95-10.786-5.117-16.098-7.835-.857-.438-1.617.855-.756 1.296 5.654 2.892 11.633 5.159 17.099 8.413.177 1.388.346 2.777.509 4.167-4.332-1.683-8.57-3.522-12.621-5.835-2.46-1.405-16.308-9.954-6.883-12.31 2.115-.53 2.619-.089 17.909 5.602-.072.481-.028-.026.841 6.502zm130.939-7.94a35.08 35.08 0 0 0-.687-1.593 783.79 783.79 0 0 0 6.064-7.505c.91-.58 1.822-1.157 2.737-1.73a963.13 963.13 0 0 1-8.114 10.829zm53.27-44.6c-15.772 13.488-34.432 23.193-51.839 34.482 4.465-5.423 21.86-27.199 22.44-28.616 9.003-5.557 19.187-12.17 19.947-12.657 2.413 2.202 3.505 3.995 9.452 6.791zm-4.658-17.648c-16.122 14.215-15.083 13.314-27.146 21.5-4.961-2.218-9.83-4.734-14.124-7.99 10.21-7.225-.709-.47 32.168-19.577 2.614 2.55 5.718 4.55 9.102 6.067zm-11.035-14.49c-10.471 9.198-21.216 18.026-32.632 26.04-3.115-2.732-4.978-5.304-5.232-5.583 20.117-18.22 12.305-12.904 28.416-26.704 2.728 2.71 5.774 4.714 9.448 6.247zm-40.142-35.472c-.073 1.716.115 3.688.107 4.94-.035 5.283.115 10.565.238 15.845.119 5.094.233 10.19.177 15.286-.06 5.677 2.502 7.956-6.848 8.205-14.941.397-32.478-10.338-45.437.694.38-14.345.5-27.3.29-42-.065-4.453-3.09-7.025 8.271-6.909 3 .03 5.997.49 8.988 1.115.049.672.1 1.346.16 2.026.238 2.694 1.774 8.909 6.074 7.106 2.275-.954 3.1-3.745 3.339-6.856 8.657 2.04 16.275 2.548 24.641.548zm-32.73-2.503c2.128.48 4.254 1.023 6.377 1.543-.315 4.31-1.074 6.535-3.726 3.086-2.658-1.802-2.468-2.105-2.651-4.629zm8.765-.827-.599-.118-.004-.272.603.39zm-2.306-.477c-2.704-.588-4.124-.974-6.704-1.579a49.564 49.564 0 0 1-.172-3.592 159.552 159.552 0 0 1 6.862 4.16c.007.337.013.674.014 1.01zm-2.991-6.36a126.86 126.86 0 0 0-3.671-2.105c.831-5.515 3.676-7.061 3.67 2.106zm-5.102.508a51.313 51.313 0 0 0-.007 3.953c-5.794-1.287-11.743-2.072-17.311.218-1.643.675-2.343 1.098-2.892 2.627-.795 2.214.11 6.303.138 8.746.151 13.198.041 26.871-.388 41.794-.02.673.335 1.106.803 1.31.499.678 1.48.99 2.208.191.03-.033.061-.06.091-.092 1.729.881 2.96 1.19 4.915 2.332 7.664-4.378 17.618-5.143 26.209-3.12 3.598.847 9.298 2.481 13.096 2.234l.018.005h.01c5.858 1.547 10.871-2.576 12.33-8.17 1.834-6.956 1.08-14.656 1.148-28.177a142.938 142.938 0 0 0 21.41 7.688c-6.122 13.599-17.338 22.916-28.196 32.778-.84.763-.452 1.802.297 2.273.032.202.115.411.275.623 5.827 7.708 13.904 12.53 22.583 16.432a784.442 784.442 0 0 1-24.234 30.502c-5.437-6.613-12.833-10.264-21.086-10.407 1.432-4.218-.904-8.71-5.04-10.67-3.737-1.772-8.388-.478-10.248 3.034-3 3.185-2.34 8.698 1.022 11.404 3.48 2.8 9.34 2.485 12.472-.793 8.135-.452 15.3 2.571 20.931 9.743a851.02 851.02 0 0 1-38.228 42.426c-29.282-14.189-58.647-28.374-89.246-39.542-5.47-1.996-11.576-5.804-17.275-4.375 23.896-46.4 59.474-85.071 94.582-123.208 7.688 2.845 12.508 4.329 19.613 8.241z" fill="#7c3aed" opacity="1" data-original="#000000" class=""></path><path d="M119.16 186.97c.118.179.282.342.51.474l10.573 6.094c.945.545 1.838-.042 2.137-.83.053-.045.108-.087.159-.143l16.53-18.136c.177-.195.286-.402.347-.612.557-.642.65-1.737-.285-2.319a85.163 85.163 0 0 1-10.55-7.74c-.372-.937-1.556-1.527-2.364-.546l-.221.268c-.086.083-.16.176-.226.274l-17.108 20.774c-.732.889-.26 2.008.498 2.442zm11.417 3.298-8.662-4.993 15.39-18.688a89.908 89.908 0 0 0 8.872 6.566l-15.6 17.115zM151.722 67.653c-7.092 2.872-13.532-.665-19.621-4.266-1.666-.986-3.176 1.606-1.514 2.59 5.606 3.315 11.925 6.88 18.703 5.637 4.966-.91 5.616-2.842 11.951-1.422 2.372.531 3.672 1.015 5.99.018 1.769-.76.242-3.346-1.514-2.59-2.469 1.062-4.879-1.25-7.205-1.709-2.723-.536-4.357.758-6.79 1.742zM150.84 78.655c-1.684.32-3.088 1.408-4.787 1.705-3.023.53-5.922-1.043-8.517-2.403-1.709-.895-3.227 1.693-1.514 2.59 2.633 1.38 5.4 2.779 8.424 2.941 1.361.073 2.603-.13 3.88-.594 1.409-.511 4.062-2.302 4.968-.47.856 1.73 3.445.212 2.59-1.515-.953-1.927-2.957-2.65-5.044-2.254zM272.762 175.171c-15.567-9.018-31.682-16.966-48.253-23.96l-.018-.01v.002c-.12-.05-.238-.103-.358-.153-1.054-.444-1.834.527-1.837 1.48-11.256 11.345-37.917 39.948-46.417 52.7-.823 1.234.817 2.875 2.052 2.052.043-.03.115-.036.174-.052a22.613 22.613 0 0 1 2.58 5.166c4.999 2.353 9.86 5.081 14.675 7.882a562.857 562.857 0 0 0-7.42 9.441c-.61.794-.046 1.766.75 2.118.022.028.042.055.065.082a14.864 14.864 0 0 1 3.235 6.456c18.573 8.882 35.006 17.927 51.956 29.613.445-.717 32.087-49.885 34.323-54.783-.321-2.616.005-4.265-.183-6.68.216-.254.429-.511.65-.758.64-.72.561-1.838-.305-2.356-4.565-2.731-9.173-5.402-13.844-7.954a534.3 534.3 0 0 1 8.557-11.8c-.16-1.612-.704-3.334-1.046-4.998.315-.383.633-.765.967-1.132.642-.707.565-1.853-.303-2.356zm-30.964 83.42c-21.172-16.364-47.785-28.985-49.551-29.556a530.574 530.574 0 0 1 5.717-7.239c15.203 8.912 25.377 14.266 36.69 21.69 8.114-15.332 17.954-30.903 28.196-45.558a392.992 392.992 0 0 1 12.554 7.178c-2.402 2.92-33.538 53.373-33.606 53.486zM224.584 154.48a422.962 422.962 0 0 1 45.084 22.384c-2.64 3.124-36.878 57.814-36.952 57.934-15.042-11.474-30.978-20.813-49.041-28.516-1.143-.488-2.405-1.283-3.67-1.75 8.636-12.069 33.38-38.771 44.58-50.052z" fill="#7c3aed" opacity="1" data-original="#000000" class=""></path><path d="M229.41 180.995c12.884-.115 10.731 10.785 19.403 8.138 1.841-.562 1.056-3.46-.798-2.893-4.11 1.254-6.795-5.874-11.686-7.55-4.621-1.584-17.287 1.796-16.825-6.234.111-1.928-2.889-1.922-3 0-.421 7.32 7.208 8.59 12.907 8.539zM220.982 201.646c2.467.405 7.163-.742 8.286 2.289.665 1.795 3.565 1.018 2.893-.798-1.053-2.844-3.405-4.07-6.367-4.285-5.372-.39-10.011-1.025-12.209-6.746-.685-1.784-3.587-1.01-2.893.797 1.955 5.09 5.83 8.01 10.29 8.743z" fill="#7c3aed" opacity="1" data-original="#000000" class=""></path></g></svg>