<svg xmlns="http://www.w3.org/2000/svg" version="1.1" xmlns:xlink="http://www.w3.org/1999/xlink" width="512" height="512" x="0" y="0" viewBox="0 0 300 300" style="enable-background:new 0 0 512 512" xml:space="preserve" class=""><g><path d="M137.939 163.3c-.92-1.311-2.33-2.011-3.87-1.96-3.696.14-5.09 5.491-2.4 7.84 3.648 3.14 9.516-1.279 6.27-5.88z" fill="#7c3aed" opacity="1" data-original="#000000" class=""></path><path d="M266.232 96.95c-41.869-40.29-149.466-31.802-169.65 13.993-6.376 14.467-1.085 28.063 8.566 38.465h-.01c-83.255 9-110.575 43.63-54.57 65.38.672-2.144.822-5.877 1.36-7.259 4.806-12.305 24.935.386 26.06-14.6.3-3.97-.319-8.07 1.23-11.86 2.661-6.52 10.33-8.4 16.74-7.56 8.665 1.122 27.44 11.376 31.38-2.4-1.79-2.845-1.94-6.411-.924-8.67 1.51-2.238 4.426-3.51 6.823-4.483 1.765-.718.994-3.621-.797-2.893-2.95 1.198-6.329 2.694-8.288 5.343l-.013-.007a.307.307 0 0 0-.08-.04c.406-9.262 6.909-13.004 11.62-10.84h.003c1.597 1.64 2.487 4.081 2.147 6.73-.246 1.91 2.756 1.891 3 0 .865-6.734-4.648-12.792-11.556-11.663-6.225 1.015-9.605 6.74-10.11 12.583-10.363-6.643-19.776-16.577-21.932-28.275 2.917-4.86 10.304-9.457 16.167-8.347 4.07.771 8.234 3.226 11.256 6.174 10.574 16.035 44.87 20.608 64.395 19.95-.152.813 7.097 12.394 1.557 27.465-16.322.14-32.725-2.237-47.943-6.228-1.13-.297-1.864.644-1.858 1.542l-.006.01c-2.162 3.18-7.464 6.666-11.17 4.119-3.483 7.448-12.638 8.612-20.45 6.65-5.82-1.46-11.47-4.35-17.61-3.88-3.64.28-7.02 1.61-8.94 4.81-3.381 5.627.652 14.546-4.62 19.93-5.735 5.859-15.83 1.215-21.06 4.78-3.725 2.53-2.39 7.158-3.46 10.01 74.499 26.888 210.61 9.359 210.61-27.71 0-13.314-18.62-21.516-19.817-22.383a101.49 101.49 0 0 0 7.404-3.868c.506 2.572 15.235 9.018 18.054-2.15.802-3.18-.23-6.83-2.298-9.641 1.25-.762 2.747-2.569 3.427-3.928 0-.01.01-.01.01-.02l.035-.043c12.41-16.148 9.67-35.375-4.682-49.186zm.58 4.871c-9.728-5.537-22.467-.538-26.816 11.879a.632.632 0 0 0-.01.348c-15.822-10.864-35.7-14.933-54.788-14.354a61.518 61.518 0 0 0 .773-13.697c-.147-2.668-.094-9.713-1.794-12.32 28.819-.666 64.43 7.906 82.635 28.144zm-98.605-26.947c3.655 8.042 4.092 17.38 2.455 25.998-15.142 2.104-30.194 7.335-39.523 19.062.168-.295.397-.619.147-1.013-4.995-7.87-14.059-12.26-23.22-9.898-2.855.736-6.522 2.11-9.16 4.118 9.45-23.787 43.922-35.034 69.301-38.267zM77.08 166.059c-12.59 1.19-24.04 7.5-31.73 17.56-1.15 1.52-3.76.02-2.59-1.51 8.4-10.99 20.55-17.75 34.32-19.05 1.92-.18 1.91 2.82 0 3zm71.759-27.603c-2.881-3.236-4.8-3.933-4.8-9.437.83-3.42 3.41-6.13 6.16-8.34 15.593-12.568 36.421-13.188 56.2-10.79 13.756 1.668 28.035 5.02 38.372 14.156-5.122 6.705-13.98 11.472-21.164 13.779-21.655 6.954-50.301 8.57-74.768.632zm-12.22 49.573c14.261 4.74 29.23 4.95 43.61.58 1.86-.57 2.64 2.33.8 2.89-14.859 4.51-30.47 4.32-45.21-.58-1.83-.61-1.04-3.5.8-2.89zm96.39-15.25c3.77 2.75 4.98 7.87 2.6 11.95-.979 1.67-3.57.15-2.59-1.52 1.5-2.56.93-6.05-1.53-7.84-1.54-1.13-.04-3.73 1.52-2.59zm-130.8 30.66c38.74 12.02 81.14 9.27 117.961-7.78 1.74-.81 3.26 1.77 1.51 2.59-37.55 17.39-80.72 20.35-120.27 8.08-1.84-.57-1.05-3.46.8-2.89zm164.639-44.47c-1.53 6.29-8.929 4.588-12.556 1.586-.052-.043-.106-.072-.16-.107a95.18 95.18 0 0 0 2.125-1.357c.1.007 2.814 1.73 5.183-.331 3.18-2.68.868-7.98-3.29-7.87-2.782.117-4.31 3.168-3.623 5.752-14.996 9.727-32.191 14.911-49.93 16.734 3.077-5.383-.062-24.636-1.36-27.824 8.384-1.08 16.703-2.956 24.264-5.946 9.955-3.935 22.584-12.354 24.205-23.938.023-.16.015-.308-.004-.451 7.632-7.967 15.882-5.597 23.62 2.021 2.177 9.116-.428 18.07-5.797 25.745-.063-.042-.108-.073-.178-.11-6.472-10.628-18.11-7.088-18.192 1.9-.018 1.93 2.982 1.932 3 0a5.882 5.882 0 0 1 .426-2.164c3.09-1.15 4.649-.21 6.749 1.07.226.16 1.46.752 2.71 2.24.19.22.39.79.58 1.39v.007c-2.19-1.56-4.84-2.268-7.555-1.453-1.844.555-1.059 3.451.797 2.894 5.203-1.564 10.142 5.459 8.986 10.212z" fill="#7c3aed" opacity="1" data-original="#000000" class=""></path></g></svg>