<svg xmlns="http://www.w3.org/2000/svg" version="1.1" xmlns:xlink="http://www.w3.org/1999/xlink" width="512" height="512" x="0" y="0" viewBox="0 0 300 300" style="enable-background:new 0 0 512 512" xml:space="preserve" class=""><g><path d="m196.994 252.767-4.26-2.388c-.844-.472-1.6.824-.758 1.295l4.26 2.388c.843.473 1.6-.822.758-1.295zM239.05 163.61l7.878-1.245c.95-.15.547-1.596-.398-1.446l-7.879 1.246c-.95.15-.547 1.595.4 1.446zM250.767 161.456c.966 0 .967-1.5 0-1.5-.964 0-.966 1.5 0 1.5zM200.13 179.608c1.108-.371 1.887-1.443 1.656-2.63-.367-1.883-2.675-2.553-3.194-1.677a.764.764 0 0 0-.68.139c-.89.695-1.1 2.014-.632 3.012.505 1.075 1.741 1.528 2.85 1.156zm-.539-1.403c-1.091.28-1.35-1.131-.618-1.704.035-.028.046-.059.074-.087.046.005.083.021.135.017 1.118-.087 1.621 1.462.41 1.774zM61.647 98.708c2.903.341 5.338-1.094 8.17-1.137.964-.015.967-1.515 0-1.5-1.776.026-3.22.636-4.929 1.006a9.27 9.27 0 0 1-8.305-2.282c-.707-.656-1.77.403-1.06 1.061 1.725 1.6 3.773 2.574 6.124 2.852zM94.345 68.956c5.404-3.147 2.005-13.703-4.42-10.744-.416.192-.642.485-.73.808-1.845 1.666-2.43 4.687-1.603 6.975.967 2.678 4.094 4.508 6.753 2.96zM91.346 72.481c-3.694 1.469-5.435 5.394-6.624 8.95-.502.662-.321 3.552 1.386 3.501 12.873-.392 13.287.05 14.527-1.004 2.403-2.042-.29-6.702-1.551-8.59-1.783-2.67-4.626-4.094-7.738-2.857zM78.39 67.295c-3.069 3.284-7.292.56-10.792-.19-2.688-.576-5.27-.408-7.929.201-.94.216-.542 1.662.4 1.447 6.833-1.566 10.201 1.16 13.497 1.556 2.288.276 4.304-.262 5.885-1.952.658-.705-.4-1.769-1.061-1.062zM62.01 78.395c-.735-.615-1.801.44-1.06 1.06 4.577 3.833 9.939-2.637 14.417.378.802.54 1.554-.76.756-1.295-4.522-3.044-10.135 3.187-14.112-.143zM48.173 122.826c-.824-.509-1.578.789-.757 1.295 5.379 3.317 11.229 6.462 17.58 3.977 4.448-1.74 7.538-4 12.555-3.615 4.458.344 8.53 1.531 13.034.981.947-.115.958-1.616 0-1.5-6.51.794-13.182-2.41-19.59-.432-2.802.865-5.109 2.927-7.95 3.679-5.435 1.437-10.464-1.666-14.872-4.385zM86.636 166.11c-1.986-.528-3.588-.111-5.48.65-3.018 1.212-5.661 1.605-8.66.045-.856-.444-1.616.85-.758 1.296 1.904.99 3.893 1.5 6.05 1.247 2.915-.342 5.395-2.605 8.45-1.79.933.248 1.332-1.198.398-1.447zM116.399 197.385c4.888 1.019 9.84-1.828 11.194-6.704 1.46-5.257-2.473-10.148-7.534-11.218-5.086-1.082-10.308 1.788-11.398 6.923-1.092 5.148 2.793 9.968 7.738 11zM87.58 146.885c-8.918-2.859-15.613 9.507-24.613 2.37-.75-.593-1.818.461-1.06 1.061 2.797 2.219 5.953 3.059 9.528 2.555 5.476-.772 9.986-6.386 15.746-4.54.921.296 1.316-1.152.399-1.446z" fill="#7c3aed" opacity="1" data-original="#000000" class=""></path><path d="M45.337 75.035c2.434 5.24 3.427 11.26 2.775 16.988-4.628 11.59-15.372 20.627-17.227 33.432-.692 4.774.111 8.983 1.855 12.79 4.333 12.723 17.779 18.752 24.795 29.782 6.735 10.589 6.478 25.094-.945 35.213a32.807 32.807 0 0 0 3.337 6.653c-.268.794-.025 1.809.948 1.966 7.98 1.285 10.685-9.089 71.2-4.747 1.13.082 1.876-1.336 1.294-2.257-.371-.588 12.305-26.76-9.93-54.364 3.239.82 17.733-1.549 28.638-9.572.023 1.868.017 3.737.008 5.607-.013 2.914-.862 8.038.177 10.808.498 1.33 7.726 6.213 7.905 6.327.08.05.173.077.267.077.103 0 13.397-.401 13.734-.416-.413 9.899-.428-3.164-.428 22.339 0 .1.08.93.309 1.087 7.103 4.918 6.607 4.577 6.805 4.579 4.326.05 9.334.347 14.047.436 0 18.668.009 17.11-.02 17.684a1964.82 1964.82 0 0 0-16.779 30.749c-.549.332-1.469 2.629-1.291 3.25-.773 5.808 3.285 7.921 28.644 21.975 4.69 2.6 11.309 1.467 16.518.172 3.262-6.09 6.646-11.94 10.064-17.731 14.692 3.016 27.44 5.249 39.67 7.614 1.596.7 3.186 1.413 4.77 2.146 1.398.647 2.654-.893 2.186-1.945-.014-.1-22.855-49.158-22.956-49.232 6.61-12.138 12.734-23.724 19.238-36.807-.52-2.709-.553-5.863-.92-8.802 1.11-3.615.735-6.924-3.888-8.01-4.068-.955-30.25 2.842-31.595 3.055-15.3 2.429-12.304-.996-20.399 12.825-1.562 2.668-3.097 5.35-4.648 8.022-1.245-1.687-2.699-3.314-3.822-5 0-1.147-.694-1.747-1.5-1.747-5.277 0-10.554.068-15.83.11-.073-3.143.003-6.341.08-9.44.079-3.215.162-6.54.076-9.81l-.004-.124-3.87-6.894c-.192-1.058-.465-2.412-1.508-2.688-.58-.081.829-.124-16.674.886-.014-.527-.086-7.01-.087-7.115-2.983-3.35-1.357-1.728-3.264-4.203-.646-2.696-2.281-5.243-4.738-6.266.63-10.996-2.893-21.321-9.825-29.895-.34-.42-.973-.492-1.46-.386-14.857 3.22-23.782 12.859-23.865 14.747-6.112-2.122-12.284-4.07-18.453-6.035 5.582-8.1 10.343-15.228 8.116-25.753-2.189-10.348-9.36-20.227-16.44-27.974-.013-.63-.346-1.233-1.054-1.335a803.152 803.152 0 0 1-76.13-14.68c-1.308-.317-1.854-.066-1.978 1.869-.15 2.363.328 7.238.815 16.656 9.716 5.094 18.638 13.434 23.257 23.384zm40.746 26.318c-.532 2.646-1.676 5.083-3.604 6.94-1.455-1.205-2.374-2.545-3.605-4.159.844-1.816 2.308-3.614 2.749-5.456 1.589-.049 3.165-.028 4.695.116 1.799.169 41.052 13.336 42.196 13.743-1.882 3.938-3.768 8.048-4.35 12.4-40.72-15.53-38.815-14.748-40.442-15.756 2.012-1.999 3.247-4.641 3.808-7.43.19-.942-1.256-1.345-1.447-.398zm78.205 31.047c-.007 1.994-1.737 3.09-3.781 3.726-8.498 2.64-6.988-7.86-1.473-9.068 3.121-.684 4.67 2.202 5.254 5.342zm-12.584-1.322c-5.544 0-9.604-.05-15.488-1.01 2.728-1.863 5.926-10.415 4.999-13.465 4.689 2.743 9.001 6.04 12.674 10.3-1.066 1.191-1.847 2.642-2.185 4.175zm-13.265-14.76c-2.41 2.333-4.928 9.066-4.598 12.314-.173-.08-8.128-3.107-8.228-3.145.49-4.374 2.438-8.523 4.318-12.448a217.023 217.023 0 0 1 8.508 3.28zm-20.83 9.316c-.538 1.003 1.295 13.415 4.588 23.337-7.392-8.926-15.858-17.313-18.154-28.529a22797.7 22797.7 0 0 0 13.566 5.192zm7.262 21.86a99.568 99.568 0 0 1-4.131-18.739c9.818 4.109 20.216 5.536 30.894 5.32.07.433.27 1.467.341 3.147-7.745 6.29-17.13 9.763-27.104 10.272zm81.45 47.63c.016 1.841.21 3.616.826 5.116.326.793.966 1.223 1.846 1.048 1.676-.335 3.341-.718 5.006-1.104-3.214 4.949-6.048 10.985-7.622 16.72-8.897-4.309-8.476-2.73-8.476-6.817 2.782-5.001 5.584-9.992 8.42-14.963zm31.046 43.755c1.951 3.472 2.072 3.618 2.366 3.846l.004.005c-1.855.56-3.878 1.34-5.907 2.105l3.537-5.956zm36.837 14.443c-10.637-4.723-21.535-8.77-32.44-12.843a146.042 146.042 0 0 1-2.627-4.59c5.22-8.821 7.28-12.45 14.863-26.316 6.284 14.818 12.924 29.402 20.204 43.749zm-50.161-88.844c1.748-2.853 3.406-3.62 6.682-4.316 7.665-1.629 24.64-3.506 33.61-4.233.799-.065 2.054-.385 2.835-.22 1.512-.421 2.407.316 2.686 2.211 1.553 1.075 1.834 2.22.844 3.436-.39 2.053-2.44 4.496-3.491 6.356-57.926 102.482-51.508 91.434-53.986 94.914-2.084.068-4.169.136-6.254.206-.1-.027-28.256-14.063-27.065-19.662a2085.96 2085.96 0 0 1 15.552-28.672c.023.036.037.078.061.113 1.203 1.688 3.378 1.997 10.166 5.272-.767 3.893-1.351 10.319 2.202 12.083 2.913 1.449 6.696-1.306 9.062-3.554 3.469-3.296 6.933-8.238 9.754-13.914 6.655-13.387 6.578-23.351 2.564-25.535-2.715-1.477-7.23.603-12.681 7.587-.655.144-1.31.29-1.966.438-.069-5.69.271-10.938.205-16.63 11.007-18.949 8.95-15.44 9.22-15.88zm-37.031 8.65c6.554 0 13.107-.119 19.661-.136 0 15.657.016 14.427-.04 15.616a2137.236 2137.236 0 0 0-8.732 15.412v-18.505c0-.811-.687-1.5-1.5-1.5-6.554 0-13.107.117-19.661.136 0-1.402.187-26.635-.324-27.936-.234-.592-.746-1.141-1.446-1.101-21.695 1.238-19.328 1.293-19.87 1.176.092-.309.166-11.553-.056-17.421 3.022 1.475 7.175.287 9.607-1.445-.011 2.378-.179 4.708-.142 6.51.026 1.262 1.302 1.695 2.182 1.304 6.316-.362 12.632-.732 18.948-1.094.816 3.616-.127 8.93-.127 12.359v15.125c0 .81.687 1.5 1.5 1.5zM147.339 98.2c2.689-.841 3.365-1.037 5.27 1.38 5.276 6.69 7.176 16.024 6.776 24.415a7.77 7.77 0 0 0-3.174 1.013c-6.739-7.932-15.628-12.66-25.049-16.628 4.31-4.7 9.491-8.089 16.177-10.18zm-33.746-21.865c2.803 10.54-2.23 17.497-7.818 25.582a687.586 687.586 0 0 1-4.801-1.56c-10.959-3.61-10.281-6.115-28.615-3.831-.978.121-2.064 1.235-1.296 2.257 2.32 3.082 4.672 6.137 7.004 9.208 4.458 5.868 3.276 3.778 11.843 7.045 3.244 1.235 7.296 2.785 10.904 4.168 4.723 30.04 40.144 28.833 29.591 84.774-18.683-1.48-33.452-4.713-65.895 4.606 5.826-8.539 7.703-19.222 5.112-29.374-3.514-13.772-14.957-20.98-24.76-30.112-5.853-5.451-11.293-12.288-11.236-20.679.052-7.735 4.936-14.578 9.066-20.739 7.775-11.6 12.918-22.516 9.078-36.652-3.89-14.318-14.227-23.906-24.397-33.842a802.915 802.915 0 0 0 70.294 13.376c6.556 7.065 13.412 16.32 15.926 25.773z" fill="#7c3aed" opacity="1" data-original="#000000" class=""></path><path d="M157.339 151.245c-.837-.134-1.878 1.463-1.18 2.988.442.968 1.523 1.414 2.532 1.105 1.013-.31 1.724-1.283 1.593-2.35-.224-1.823-2.37-2.55-2.945-1.743zm.83 2.68c-.817.16-.944-.919-.341-1.505.026 0 .044.011.071.01.933-.073 1.268 1.303.27 1.495zM182.23 145.069c-.835-.134-1.877 1.463-1.18 2.988.444.968 1.523 1.414 2.533 1.105 1.013-.31 1.724-1.283 1.593-2.35-.224-1.822-2.372-2.551-2.945-1.743zm.83 2.68c-.814.16-.949-.93-.34-1.504.025 0 .044.01.07.008.933-.072 1.268 1.303.27 1.497zM178.955 178.762c-.836-.138-1.876 1.465-1.18 2.988.443.967 1.523 1.414 2.532 1.105 1.013-.31 1.725-1.283 1.593-2.35-.223-1.827-2.373-2.55-2.945-1.743zm.83 2.68c-.816.159-.948-.931-.34-1.505.025 0 .044.01.07.009.933-.072 1.268 1.304.27 1.497z" fill="#7c3aed" opacity="1" data-original="#000000" class=""></path></g></svg>