<svg xmlns="http://www.w3.org/2000/svg" version="1.1" xmlns:xlink="http://www.w3.org/1999/xlink"
    width="512" height="512" x="0" y="0" viewBox="0 0 100 100"
    style="enable-background:new 0 0 512 512" xml:space="preserve" class=""><g><linearGradient id="a"><stop offset="0" stop-color="#e1e1e1"></stop><stop offset=".124" stop-color="#e8e8e8"></stop><stop offset=".296" stop-color="#fafafa"></stop><stop offset=".641" stop-color="#ddd"></stop><stop offset=".859" stop-color="#e1e1e1"></stop><stop offset="1" stop-color="#e8e8e8"></stop></linearGradient><linearGradient xlink:href="#a" id="d" x1="288.281" x2="289.281" y1="-5248.818" y2="-5248.818" gradientTransform="matrix(0 -.542 .542 0 2890.552 202.845)" gradientUnits="userSpaceOnUse"></linearGradient><linearGradient id="b"><stop offset="0" stop-color="#e34440"></stop><stop offset=".125" stop-color="#c53b2e"></stop><stop offset=".179" stop-color="#d33f35"></stop><stop offset=".267" stop-color="#e5453d"></stop><stop offset=".363" stop-color="#ef4842"></stop><stop offset=".479" stop-color="#f24944"></stop><stop offset=".611" stop-color="#df433b"></stop><stop offset=".783" stop-color="#cc3d31"></stop><stop offset=".904" stop-color="#c53b2e"></stop><stop offset="1" stop-color="#f24944"></stop></linearGradient><linearGradient xlink:href="#b" id="e" x1="288.281" x2="289.281" y1="-5248.819" y2="-5248.819" gradientTransform="matrix(0 -.542 .542 0 2887.734 202.845)" gradientUnits="userSpaceOnUse"></linearGradient><linearGradient xlink:href="#b" id="f" x1="288.281" x2="289.281" y1="-5248.818" y2="-5248.818" gradientTransform="matrix(0 -.542 .542 0 2893.904 202.845)" gradientUnits="userSpaceOnUse"></linearGradient><linearGradient xlink:href="#b" id="g" x1="3284.93" x2="3285.931" y1="-24700.143" y2="-24700.143" gradientTransform="matrix(0 -.107 .107 0 2698.012 398.262)" gradientUnits="userSpaceOnUse"></linearGradient><linearGradient xlink:href="#a" id="h" x1="288.281" x2="289.281" y1="-5248.818" y2="-5248.818" gradientTransform="matrix(0 -.542 .542 0 2881.821 202.845)" gradientUnits="userSpaceOnUse"></linearGradient><linearGradient id="c"><stop offset="0" stop-color="#4ab9e7"></stop><stop offset=".125" stop-color="#16769e"></stop><stop offset=".138" stop-color="#1d80a8"></stop><stop offset=".173" stop-color="#2e95bf"></stop><stop offset=".214" stop-color="#3aa5d1"></stop><stop offset=".263" stop-color="#43b0de"></stop><stop offset=".329" stop-color="#49b7e5"></stop><stop offset=".479" stop-color="#4ab9e7"></stop><stop offset=".485" stop-color="#49b8e6"></stop><stop offset=".668" stop-color="#2d94bf"></stop><stop offset=".814" stop-color="#1c7ea7"></stop><stop offset=".904" stop-color="#16769e"></stop><stop offset="1" stop-color="#4ab9e7"></stop></linearGradient><linearGradient xlink:href="#c" id="i" x1="288.281" x2="289.281" y1="-5248.818" y2="-5248.818" gradientTransform="matrix(0 -.542 .542 0 2879.004 202.845)" gradientUnits="userSpaceOnUse"></linearGradient><linearGradient xlink:href="#c" id="j" x1="288.281" x2="289.281" y1="-5248.818" y2="-5248.818" gradientTransform="matrix(0 -.542 .542 0 2885.173 202.845)" gradientUnits="userSpaceOnUse"></linearGradient><linearGradient xlink:href="#c" id="k" x1="3284.93" x2="3285.931" y1="-24700.145" y2="-24700.145" gradientTransform="matrix(0 -.107 .107 0 2689.282 398.262)" gradientUnits="userSpaceOnUse"></linearGradient><path fill="#888da1" d="M20.167 46.587V16.979h37.988l.888-.957.901.949-.003.007h.017v31.33H20.167v-.009l-.902-.95.902-.762z" opacity="1" data-original="#888da1"></path><path fill="#fffbf2" d="M19.617 47.006h38.408V16.381H19.617z" opacity="1" data-original="#fffbf2"></path><path fill="#acbdc2" d="M19.264 16.029h39.112v31.33H19.264zm38.409.704H19.969v29.922h37.704z" opacity="1" data-original="#acbdc2"></path><path fill="#cedbdb" d="M59.055 47.36h-.679V16.029h.679zM20.648 46.655h-.679V16.733h.679z" opacity="1" data-original="#cedbdb"></path><path fill="#b5b5d3" d="M21.658 25.314h33.99v-.209h-33.99zM21.658 30.582h33.99v-.21h-33.99zM21.658 35.849h33.99v-.21h-33.99zM21.658 41.117h33.99v-.211h-33.99z" opacity="1" data-original="#b5b5d3"></path><path fill="#b5b5d3" d="M26.429 44.911V17.993h-.21v26.918zM36.964 44.911V17.993h-.21v26.918zM47.499 44.911V17.993h-.211v26.918z" opacity="1" data-original="#b5b5d3"></path><g fill="#6ab5d3"><path d="M54.065 26.45c-.471-.022-.985-.111-1.455-.07-.437.038-.594.132-1.025.024-.499-.125-.96-.203-1.476-.106-.369.069-.696.209-1.077.194-.203-.008-.204-.325 0-.317.417.017.8-.165 1.209-.217a3.28 3.28 0 0 1 1.1.05c.163.035.324.109.49.134.291.043.505-.058.779-.08.471-.037.982.049 1.455.071.204.011.205.328 0 .317zM52.136 27.431c-.335.137-.609.057-.944-.04-.531-.153-.989-.059-1.505.097-.195.06-.279-.246-.084-.306.382-.115.778-.234 1.183-.203.433.032.833.323 1.266.147.188-.077.27.229.084.305zM50.72 31.519a2.674 2.674 0 0 0-1.189.167c-.191.072-.273-.234-.084-.306.41-.155.836-.215 1.273-.179.201.018.203.334 0 .318zM53.638 32.477c-.781-.214-1.571-.153-2.368-.096l-2.196.161c-.203.015-.202-.303 0-.317 1.495-.109 3.181-.456 4.648-.054.196.055.113.36-.084.306zM54.383 36.985l-2.394.242c-.202.021-.201-.297 0-.317l2.394-.241c.202-.021.201.296 0 .316zM53.638 38.197c-.695-.062-1.395-.15-2.093-.148-.849.003-1.7.068-2.548.109-.203.011-.202-.307 0-.316.848-.041 1.699-.107 2.548-.109.698-.003 1.398.086 2.093.148.201.017.203.334 0 .316zM52.344 38.953l-.874.157c-.23.041-.459.111-.689.052-.197-.051-.114-.356.084-.306.223.058.519-.051.74-.091l.655-.117c.199-.036.284.27.084.305zM45.283 20.399c-.619-.353-1.266-.167-1.919.019-.445.127-.893.254-1.335.209-.488-.049-.931-.29-1.406-.399-.686-.159-1.377-.112-2.048.09-.196.058-.279-.248-.084-.306a4.275 4.275 0 0 1 1.805-.163c.655.086 1.261.458 1.922.474.415.01.817-.101 1.215-.212.67-.187 1.327-.375 2.009.016.178.101.018.374-.159.272zM34.535 20.873c-.99.021-1.981.047-2.971.064-.397.008-.794.016-1.19-.035-.31-.041-.615-.137-.93-.131-.308.006-.608.091-.903.169-.197.051-.281-.253-.084-.307.461-.122.899-.219 1.376-.148.521.076 1.012.145 1.54.138 1.054-.014 2.109-.046 3.163-.069.203-.002.203.314-.001.319zM44.036 27.063c-.473.027-.943-.008-1.411-.043-.658-.05-1.312-.099-1.97.021-.2.037-.286-.268-.084-.305.679-.125 1.354-.078 2.031-.03.476.034.953.067 1.434.04.205-.011.203.307 0 .317zM33.007 28.015c-.644-.076-1.287-.155-1.931-.228-.613-.068-1.236-.125-1.775.233-.17.114-.329-.16-.16-.273.488-.325 1.041-.358 1.612-.311.753.061 1.504.173 2.254.261.199.024.202.341 0 .318zM41.636 33.646a2.102 2.102 0 0 0-1.887-.198c-.191.07-.274-.236-.084-.306a2.409 2.409 0 0 1 2.131.23c.172.108.014.382-.16.274zM40.282 32.783a3.739 3.739 0 0 1-1.565-.068c-.197-.05-.115-.356.084-.305.461.12.927.145 1.397.068.2-.032.286.273.084.305z" fill="#6ab5d3" opacity="1" data-original="#6ab5d3"></path></g><path fill="#999791" d="M46.836 25.338h-3.333l.093 1.419h.072c.123 0 .246-.003.369-.01h.011c.193 0 .189.306-.011.316-.117.007-.234.01-.351.01h-.069l.12 1.833h3.333z" opacity="1" data-original="#999791"></path><path fill="#406d7f" d="M44.047 26.747h-.011c-.123.007-.246.01-.369.01h-.072l.021.315h.069c.117 0 .234-.003.351-.01.2-.009.205-.315.011-.315z" opacity="1" data-original="#406d7f"></path><path fill="#999791" d="M42.991 36.92h-3.334l.233 3.567h3.335zM35.442 41.117H32.28l-.576 2.059 3.21.9zm-4.515-3.89.021 3.405 1.442.091-.051.183h3.14l.021-.119-1.2-.346-.048-3.002z" opacity="1" data-original="#999791"></path><path fill="#6d6d7f" d="M35.48 40.906h-3.14l-.059.211h3.161z" opacity="1" data-original="#6d6d7f"></path><path fill="#999791" d="M47.499 33.673v.092l.021-.004zm-.725-3.091h-.944l-2.37.456.786 3.352 3.042-.585v-1.032z" opacity="1" data-original="#999791"></path><path fill="#6d6d7f" d="m46.733 30.408-.903.174h.944zM47.288 32.773v1.032l.211-.041v-.091z" opacity="1" data-original="#6d6d7f"></path><path fill="#999791" d="M25.832 35.849h-1.659l1.638.278zm-3.06-3.643-.248 3.363.412.07h2.91l.211-2.876z" opacity="1" data-original="#999791"></path><path fill="#6d6d7f" d="M25.848 35.639h-2.911l1.237.21h1.658z" opacity="1" data-original="#6d6d7f"></path><path fill="#999791" d="m27.186 41.223-.246 3.365 3.285.559.248-3.364zM40.821 26.581l-1.965.268-.227.031-1.111.151.605 3.304 3.303-.45-.528-2.88c-.081.01-.163.022-.244.037a.204.204 0 0 1-.034.003c-.175 0-.241-.273-.051-.308.09-.017.181-.03.271-.041z" opacity="1" data-original="#999791"></path><path fill="#406d7f" d="M40.842 26.696c-.09.011-.181.025-.271.041-.19.034-.125.308.051.308a.204.204 0 0 0 .034-.003c.081-.015.163-.027.244-.037z" opacity="1" data-original="#406d7f"></path><path fill="#999791" d="m35.22 31.139-1.965.268-.228.031-1.11.151.607 3.302 3.302-.45zM23.207 25.886l-.581 3.289 3.211.894.382-2.16v-1.185z" opacity="1" data-original="#999791"></path><path fill="#6d6d7f" d="M26.219 26.724v1.185l.2-1.13z" opacity="1" data-original="#6d6d7f"></path><path fill="#999791" d="m30.684 30.831-2.021.355-.076.014h-.001l-1.186.21.812 3.283 3.283-.579zM41.107 25.314H37.78l-.017.239 3.286.559zm-3.097-3.125-.214 2.916h3.327l.173-2.357z" opacity="1" data-original="#999791"></path><path fill="#6d6d7f" d="M41.123 25.105h-3.327l-.016.209h3.327z" opacity="1" data-original="#6d6d7f"></path><path fill="#999791" d="m45.921 20.816-2.021.355-.077.014-1.186.209.812 3.283 3.283-.578zM43.476 36.445l-.056 3.399 3.321.291.056-3.398-2.062-.181-.059-.006zM31.755 25.314h-3.334l.03.458h3.334zm-.204-3.109h-3.333l.19 2.9h3.334z" opacity="1" data-original="#999791"></path><path fill="#6d6d7f" d="M31.742 25.105h-3.335l.014.209h3.334z" opacity="1" data-original="#6d6d7f"></path><path fill="#999791" d="M35.302 25.314h-1.208l1.206.106zm-3.266-3.584-.056 3.375h3.325l.052-3.083-2.062-.181-.059-.006h-.001z" opacity="1" data-original="#999791"></path><path fill="#6d6d7f" d="M35.306 25.105H31.98v.024l2.114.185h1.208z" opacity="1" data-original="#6d6d7f"></path><path fill="#ff5a8a" d="M43.502 25.26h3.334v3.333h-3.334z" opacity="1" data-original="#ff5a8a"></path><path fill="#491b02" d="m45.273 25.57.061.061-.061.06h-.077v-.121z" opacity="1" data-original="#491b02"></path><path fill="#491b02" d="m45.164 25.63.061-.061.061.06-.06.061z" opacity="1" data-original="#491b02"></path><path fill="#00ff5d" d="M45.09 25.448a.182.182 0 0 1 0 .365h-.23v-.364h.23z" opacity="1" data-original="#00ff5d"></path><path fill="#00a164" d="M44.678 25.631a.182.182 0 1 0 .366 0 .182.182 0 0 0-.366 0z" opacity="1" data-original="#00a164"></path><path fill="#ff5a8a" d="M39.657 36.842h3.333v3.334h-3.333z" opacity="1" data-original="#ff5a8a"></path><path fill="#491b02" d="m41.429 37.152.06.061-.06.06h-.077v-.121z" opacity="1" data-original="#491b02"></path><path fill="#491b02" d="m41.323 37.217.06-.06.062.06-.061.061z" opacity="1" data-original="#491b02"></path><path fill="#00ff5d" d="M41.245 37.03a.183.183 0 0 1 0 .365h-.23v-.365z" opacity="1" data-original="#00ff5d"></path><path fill="#00a164" d="M40.833 37.213c0 .101.081.182.182.182s.182-.081.182-.182a.182.182 0 1 0-.364 0z" opacity="1" data-original="#00a164"></path><path fill="#ff5a8a" d="m31.486 42.883.9-3.21 3.21.9-.9 3.21z" opacity="1" data-original="#ff5a8a"></path><path fill="#491b02" d="m33.99 40.431.042.074-.074.042-.074-.021.033-.117z" opacity="1" data-original="#491b02"></path><path fill="#491b02" d="m33.856 40.436.075-.042.042.075-.075.042z" opacity="1" data-original="#491b02"></path><path fill="#00ff5d" d="M33.847 40.264a.182.182 0 0 1-.099.351l-.221-.062.098-.351z" opacity="1" data-original="#00ff5d"></path><path fill="#00a164" d="M33.4 40.328a.183.183 0 0 0 .127.225c.097.026.197-.03.224-.127s-.029-.197-.126-.224-.197.029-.225.126z" opacity="1" data-original="#00a164"></path><path fill="#ffe62c" d="m30.72 40.324.213-3.327 3.327.214-.214 3.326z" opacity="1" data-original="#ffe62c"></path><path fill="#491b02" d="m32.55 37.34.056.064-.064.057-.076-.005.007-.121z" opacity="1" data-original="#491b02"></path><path fill="#491b02" d="m32.436 37.39.064-.055.057.064-.064.057z" opacity="1" data-original="#491b02"></path><path fill="#00ff5d" d="M32.374 37.207a.181.181 0 0 1 .17.193.18.18 0 0 1-.193.17l-.229-.015.023-.363z" opacity="1" data-original="#00ff5d"></path><path fill="#00a164" d="M31.951 37.362a.181.181 0 0 0 .17.193.18.18 0 0 0 .193-.17.18.18 0 0 0-.17-.193.184.184 0 0 0-.193.17z" opacity="1" data-original="#00a164"></path><path fill="#ffe62c" d="m43.385 30.8 3.274-.63.63 3.275-3.274.63z" opacity="1" data-original="#ffe62c"></path><path fill="#491b02" d="m44.986 30.681.071.048-.048.071-.075.015-.023-.12z" opacity="1" data-original="#491b02"></path><path fill="#491b02" d="m44.862 30.766.072.049.047-.072-.07-.048z" opacity="1" data-original="#491b02"></path><path fill="#00ff5d" d="M44.782 30.596a.183.183 0 0 1 .069.358l-.226.044-.069-.358z" opacity="1" data-original="#00ff5d"></path><path fill="#00a164" d="M44.412 30.853a.184.184 0 0 0 .214.145.184.184 0 0 0 .145-.214.184.184 0 0 0-.214-.144.182.182 0 0 0-.145.213z" opacity="1" data-original="#00a164"></path><path fill="#ffe62c" d="m22.3 35.257.56-3.287 3.286.56-.56 3.287z" opacity="1" data-original="#ffe62c"></path><path fill="#491b02" d="m24.396 32.418.049.07-.07.05-.075-.013.02-.12z" opacity="1" data-original="#491b02"></path><path fill="#491b02" d="m24.248 32.456.07-.05.05.07-.07.05z" opacity="1" data-original="#491b02"></path><path fill="#00ff5d" d="M24.234 32.268a.182.182 0 1 1-.061.359l-.226-.039.06-.358z" opacity="1" data-original="#00ff5d"></path><path fill="#00a164" d="M23.798 32.378c-.017.1.05.193.149.21a.182.182 0 1 0 .061-.358.182.182 0 0 0-.21.148z" opacity="1" data-original="#00a164"></path><path fill="#bee41b" d="m26.723 44.29.56-3.288 3.287.56-.56 3.288z" opacity="1" data-original="#bee41b"></path><path fill="#491b02" d="m28.81 41.438.049.069-.07.05-.075-.013.02-.12z" opacity="1" data-original="#491b02"></path><path fill="#491b02" d="m28.662 41.475.07-.05.05.07-.07.05z" opacity="1" data-original="#491b02"></path><path fill="#00ff5d" d="M28.649 41.287c.099.017.165.11.148.21a.181.181 0 0 1-.21.148l-.227-.038.062-.359z" opacity="1" data-original="#00ff5d"></path><path fill="#00a164" d="M28.213 41.397a.182.182 0 1 0 .358.061.181.181 0 1 0-.358-.061z" opacity="1" data-original="#00a164"></path><path fill="#ffe62c" d="m37.445 26.726 3.303-.45.45 3.303-3.303.45z" opacity="1" data-original="#ffe62c"></path><path fill="#491b02" d="m38.977 26.633.068.052-.052.068-.076.01-.017-.12z" opacity="1" data-original="#491b02"></path><path fill="#491b02" d="m38.854 26.726.051-.067.069.052-.051.067z" opacity="1" data-original="#491b02"></path><path fill="#00ff5d" d="M38.778 26.537a.182.182 0 1 1 .049.36l-.227.032-.049-.36z" opacity="1" data-original="#00ff5d"></path><path fill="#00a164" d="M38.395 26.773c.014.1.105.169.205.155a.182.182 0 1 0-.049-.36.182.182 0 0 0-.156.205z" opacity="1" data-original="#00a164"></path><path fill="#65dbff" d="m31.842 31.283 3.303-.45.45 3.303-3.303.45z" opacity="1" data-original="#65dbff"></path><path fill="#491b02" d="m33.376 31.19.068.051-.052.069-.076.01-.016-.12z" opacity="1" data-original="#491b02"></path><path fill="#491b02" d="m33.233 31.262.051-.067.068.053-.051.067z" opacity="1" data-original="#491b02"></path><path fill="#00ff5d" d="M33.177 31.094a.182.182 0 0 1 .05.361l-.228.03-.05-.36z" opacity="1" data-original="#00ff5d"></path><path fill="#00a164" d="M32.794 31.33c.014.1.105.169.205.155s.169-.104.155-.204a.182.182 0 1 0-.36.049z" opacity="1" data-original="#00a164"></path><path fill="#00ff5d" d="m22.38 28.873.893-3.211 3.21.893-.893 3.21z" opacity="1" data-original="#00ff5d"></path><path fill="#491b02" d="m24.81 26.202.043.074-.075.043-.074-.021.032-.116z" opacity="1" data-original="#491b02"></path><path fill="#491b02" d="m24.671 26.238.075-.042.043.075-.075.042z" opacity="1" data-original="#491b02"></path><path fill="#ff5a8a" d="M24.666 26.036a.182.182 0 1 1-.098.351l-.222-.062.098-.351z" opacity="1" data-original="#ff5a8a"></path><path fill="#ff3370" d="M24.221 26.101a.183.183 0 0 0 .126.225.184.184 0 0 0 .225-.127.181.181 0 0 0-.127-.224.18.18 0 0 0-.224.126z" opacity="1" data-original="#ff3370"></path><path fill="#00ff5d" d="m27.398 31.104 3.284-.576.577 3.284-3.284.576z" opacity="1" data-original="#00ff5d"></path><path fill="#491b02" d="m29.015 30.937.07.048-.049.071-.076.013-.02-.12z" opacity="1" data-original="#491b02"></path><path fill="#491b02" d="m28.893 31.046.05-.07.07.05-.05.07z" opacity="1" data-original="#491b02"></path><path fill="#ff5a8a" d="M28.812 30.849a.182.182 0 1 1 .064.358l-.227.04-.062-.358z" opacity="1" data-original="#ff5a8a"></path><path fill="#ff3370" d="M28.438 31.1a.183.183 0 0 0 .211.148.18.18 0 0 0 .147-.211.18.18 0 0 0-.21-.147.18.18 0 0 0-.148.21z" opacity="1" data-original="#ff3370"></path><path fill="#ffe62c" d="m37.537 25.237.56-3.286 3.286.56-.56 3.286z" opacity="1" data-original="#ffe62c"></path><path fill="#491b02" d="m39.633 22.402.049.071-.07.049-.076-.012.021-.12z" opacity="1" data-original="#491b02"></path><path fill="#491b02" d="m39.502 22.46.071-.049.049.07-.07.05z" opacity="1" data-original="#491b02"></path><path fill="#00ff5d" d="M39.472 22.252a.182.182 0 1 1-.062.359l-.226-.039.06-.358z" opacity="1" data-original="#00ff5d"></path><path fill="#00a164" d="M39.035 22.362a.182.182 0 1 0 .359.061.182.182 0 1 0-.359-.061z" opacity="1" data-original="#00a164"></path><path fill="#00ff5d" d="m42.64 21.091 3.282-.576.577 3.284-3.283.576z" opacity="1" data-original="#00ff5d"></path><path fill="#491b02" d="m44.252 20.921.07.049-.049.07-.076.014-.02-.12z" opacity="1" data-original="#491b02"></path><path fill="#491b02" d="m44.125 21.003.05-.07.07.05-.05.07z" opacity="1" data-original="#491b02"></path><path fill="#ff5a8a" d="M44.05 20.833a.182.182 0 1 1 .064.358l-.227.04-.063-.358z" opacity="1" data-original="#ff5a8a"></path><path fill="#ff3370" d="M43.676 21.083c.018.1.112.165.211.148s.165-.112.147-.211a.182.182 0 1 0-.358.063z" opacity="1" data-original="#ff3370"></path><path fill="#ffa13b" d="m43.177 39.54.29-3.32 3.32.29-.29 3.32z" opacity="1" data-original="#ffa13b"></path><path fill="#491b02" d="m45.077 36.473.055.066-.066.055-.076-.007.011-.12z" opacity="1" data-original="#491b02"></path><path fill="#491b02" d="m44.95 36.513.066-.055.056.065-.065.056z" opacity="1" data-original="#491b02"></path><path fill="#ff5a8a" d="M44.904 36.336a.182.182 0 0 1-.031.363l-.229-.021.032-.362z" opacity="1" data-original="#ff5a8a"></path><path fill="#ff3370" d="M44.479 36.481a.182.182 0 1 0 .362.032.182.182 0 0 0-.362-.032z" opacity="1" data-original="#ff3370"></path><path fill="#ff5a8a" d="M28.218 22.127h3.333v3.333h-3.333z" opacity="1" data-original="#ff5a8a"></path><path fill="#491b02" d="m29.988 22.438.061.06-.061.061h-.076v-.121z" opacity="1" data-original="#491b02"></path><path fill="#491b02" d="m29.87 22.49.062-.06.06.06-.06.062z" opacity="1" data-original="#491b02"></path><path fill="#00ff5d" d="M29.805 22.315a.182.182 0 1 1 0 .365h-.23v-.364h.23z" opacity="1" data-original="#00ff5d"></path><path fill="#00a164" d="M29.393 22.498a.182.182 0 1 0 .364 0 .182.182 0 0 0-.364 0z" opacity="1" data-original="#00a164"></path><path fill="#00ff5d" d="m31.741 24.824.29-3.32 3.32.29-.29 3.32z" opacity="1" data-original="#00ff5d"></path><path fill="#491b02" d="m33.637 21.758.055.066-.065.055-.077-.007.011-.121z" opacity="1" data-original="#491b02"></path><path fill="#491b02" d="m33.495 21.807.055.065.066-.055-.055-.066z" opacity="1" data-original="#491b02"></path><path fill="#ff5a8a" d="M33.465 21.621a.182.182 0 1 1-.032.362l-.228-.02.032-.362z" opacity="1" data-original="#ff5a8a"></path><path fill="#ff3370" d="M33.039 21.767a.182.182 0 1 0 .362.032.182.182 0 0 0-.362-.032z" opacity="1" data-original="#ff3370"></path><path fill="url(#a)" d="M44.758 46.112h3.968v.542h-3.968z" opacity="1" data-original="url(#a)"></path><path fill="#8a8a8a" d="M44.986 46.261h2.916v.269h-2.916z" opacity="1" data-original="#8a8a8a"></path><path fill="url(#b)" d="M43.09 46.112h1.668v.542H43.09z" opacity="1" data-original="url(#b)"></path><path fill="url(#b)" d="M48.726 46.112h2.737v.542h-2.737z" opacity="1" data-original="url(#b)"></path><path fill="url(#b)" d="M49.012 46.011h2.29v.108h-2.29z" opacity="1" data-original="url(#b)"></path><path fill="url(#a)" d="M36.028 46.112h3.967v.542h-3.967z" opacity="1" data-original="url(#a)"></path><path fill="#8a8a8a" d="M36.256 46.261h2.916v.269h-2.916z" opacity="1" data-original="#8a8a8a"></path><path fill="url(#c)" d="M34.359 46.112h1.669v.542h-1.669z" opacity="1" data-original="url(#c)"></path><path fill="url(#c)" d="M39.995 46.112h2.737v.542h-2.737z" opacity="1" data-original="url(#c)"></path><path fill="url(#c)" d="M40.281 46.011h2.29v.108h-2.29z" opacity="1" data-original="url(#c)"></path><path fill="#b8bdb9" d="M80.735 81.212s-10.508 2.777-34.687-.316c.001 0 14.092-5.358 34.687.316z" opacity="1" data-original="#b8bdb9"></path><path fill="#944832" d="M62.586 40.223a1.201 1.201 0 0 1 1.207-.781l10.497.693.182-.378 1.15.527.071.032.021.01a1.198 1.198 0 0 1 .621 1.379c-.678 2.545-1.781 8.089-1.561 16.627.009.32-.107.624-.325.857a1.2 1.2 0 0 1-.834.38 38.648 38.648 0 0 1-5.091-.143c-2.488-.242-4.634-.729-6.379-1.448a1.184 1.184 0 0 1-.728-1.02c-.189-2.633-.665-11.621 1.169-16.735z" opacity="1" data-original="#944832"></path><path fill="#d86a4b" d="M60.261 56.43c.033.457.312.848.729 1.02 1.745.72 3.891 1.205 6.379 1.448 1.296.127 2.509.168 3.527.171-3.431-10.565-.696-19.63-.696-19.63l4.177.284a1.231 1.231 0 0 0-.283-.054l-8.473-.559h-.003l-2.981-.197a1.202 1.202 0 0 0-1.207.782c-1.834 5.114-1.358 14.103-1.169 16.735z" opacity="1" data-original="#d86a4b"></path><path fill="#d83000" d="M70.896 59.068c.376 0 .726-.004 1.043-.011.186-.005.358-.011.521-.017.32-.012.615-.146.833-.381.218-.231.333-.536.326-.856-.222-8.537.883-14.082 1.561-16.626.092-.35.024-.716-.187-1.009a1.185 1.185 0 0 0-.615-.445l-4.178-.284s-2.735 9.065.696 19.629zM60.261 56.43c.033.457.312.848.729 1.02 4.237-8.777 4.632-18.339 4.632-18.339h-.003l-2.981-.197a1.202 1.202 0 0 0-1.207.782c-1.835 5.113-1.359 14.102-1.17 16.734z" opacity="1" data-original="#d83000"></path><path fill="#995427" d="m71.965 42.37.46-5.719 1.005.08-.459 5.72z" opacity="1" data-original="#995427"></path><path fill="#472712" d="m71.676 42.37.46-5.72 1.005.08-.459 5.72z" opacity="1" data-original="#472712"></path><path fill="#995427" d="m64.44 41.704.459-5.72 1.007.08-.46 5.721z" opacity="1" data-original="#995427"></path><path fill="#472712" d="m64.147 41.702.459-5.721 1.006.08-.46 5.721z" opacity="1" data-original="#472712"></path><path fill="#3c526c" d="M63.747 59.43h1.235v17.056h-1.235z" opacity="1" data-original="#3c526c"></path><path d="M63.747 59.43h.752v17.056h-.752z" fill="#000000" opacity="1" data-original="#000000"></path><path d="M61.093 62.144c.254-.283.538-.549.851-.792-1.46.28-2.71.809-3.581 1.498.24 1.677 2.729 3.005 5.801 3.059-1.712-.753-2.907-2.146-3.071-3.765z" fill="#000000" opacity="1" data-original="#000000"></path><path fill="#3c526c" d="M70.368 62.85c-1.325-1.046-3.52-1.727-6.003-1.727-.849 0-1.665.079-2.422.229a6.56 6.56 0 0 0-.851.792c.164 1.619 1.359 3.013 3.07 3.765l.202.003c3.164-.001 5.758-1.35 6.004-3.062z" opacity="1" data-original="#3c526c"></path><path fill="#202b37" d="M70.549 61.694c-3.101-.947-6.267-1.174-9.4-.685l-.002.003c-.622.843.002 1.419.002 1.419 3.076-.497 6.184-.28 9.229.65.237.073.47-.167.518-.543l.002-.014c.049-.38-.106-.756-.349-.83z" opacity="1" data-original="#202b37"></path><path fill="#363e48" d="M61.146 61.013c-.993.152-1.982.382-2.965.682-.243.073-.398.449-.349.831l.002.014c.048.376.28.616.518.543.928-.283 1.859-.5 2.796-.65 0-.001-.624-.578-.002-1.42z" opacity="1" data-original="#363e48"></path><path fill="#944832" d="m64.278 38.48 11.107.684.043.001.017-.002.108-.01.026-.006.107-.032.021-.009.101-.054.018-.013.084-.067.011-.008.008-.01.082-.1.01-.015.06-.115.005-.013.035-.127.002-.016.009-.121.001-.014c-.134-3.377.71-5.918 1.225-7.133l.048-.173.002-.017.005-.068-.001-.03-.003-.056-.004-.026-.01-.059-.004-.015-.095-.215a.718.718 0 0 0-.235-.221l-.014-.009-.06-.027-.018-.009-.077-.025-.005-.002h-.002l-1.003-.286-.446.263H65.278a.712.712 0 0 0-.621.372c-1.026 1.872-1.103 4.946-1.058 6.602l-.496.859zm11.916-2.439zm-.777 3.122h.013l-.002.001z" opacity="1" data-original="#944832"></path><path fill="#d86a4b" d="m75.547 33.512.048-.2-.006.018-.002.009zm-.046.207.041-.189-.004.017-.001.007zm-.045.212.045-.212-.012.048-.002.008zm-.191 1.137a19.455 19.455 0 0 1 .049-.348l-.036.249zm.14-.885-.003.021.054-.272-.015.063zm-.2 1.378.024-.229-.013.112zm-4.948 3.061c-1.428-3.641-.406-6.95.317-8.583h-3.717s.097 5.586-1.429 8.286z" opacity="1" data-original="#d86a4b"></path><path fill="#8c4c24" d="M67.363 58.367s-5.603-.148-6.947-1.609l-6.13-.147-3.887 1.775-1.14 1.423 1.435 2.43 2.042 1.303 2.615.742 3.682-.24 4.768-2.269z" opacity="1" data-original="#8c4c24"></path><path fill="#472712" d="M60.416 56.758s-.378-4.015-3.277-4.182c-2.9-.166-7.018 2.655-7.018 2.655l-1.144 3.799.282.778c.001.001 1.857-2.273 11.157-3.05z" opacity="1" data-original="#472712"></path><path fill="#d83000" d="M70.257 38.622h.002l4.117.254.041.001.018-.001.107-.012.027-.006.106-.031.022-.009.101-.054.018-.013.084-.066.012-.009.007-.01.082-.1.009-.015.061-.115.005-.014.035-.127.002-.016.009-.121.001-.013a18.01 18.01 0 0 1 .012-1.666l.006-.131.013-.17.015-.202c.012-.142.024-.281.039-.418l.012-.116c.015-.126.03-.252.048-.375v-.001l.013-.1.036-.249c.028-.185.059-.364.092-.537l.036-.188.046-.22.002-.008.048-.214.001-.007.049-.208.002-.009.05-.2-.044.183c.119-.488.249-.926.376-1.307.133-.391.261-.724.375-.99l.048-.173.001-.018.006-.067-.001-.03-.002-.056-.004-.027-.011-.058-.004-.016-.095-.215a.709.709 0 0 0-.235-.221l-.013-.007-.06-.029-.019-.009-.076-.024-.006-.001-.179-.025h-5.123c-.726 1.636-1.748 4.945-.32 8.586zm4.15.252h.012l-.002.002z" opacity="1" data-original="#d83000"></path><path fill="#d83000" d="m74.417 38.876.002-.002h-.012zM62.609 37.522c.018.36.3.646.66.67l2.156.133h.004c1.525-2.7 1.429-8.286 1.429-8.286H64.27a.712.712 0 0 0-.622.373c-1.144 2.088-1.108 5.669-1.039 7.11z" opacity="1" data-original="#d83000"></path><path d="M63.679 69.965h1.403c.368 0 .668.3.668.668v5.404c0 .368-.3.667-.668.667h-1.403a.668.668 0 0 1-.668-.667v-5.404c0-.368.3-.668.668-.668z" fill="#000000" opacity="1" data-original="#000000"></path><path d="m65.665 73.727 10.108 3.668-.341.967-10.241-2.686zM63.029 73.815l-9.863 3.58.343.967 10.239-2.686z" fill="#000000" opacity="1" data-original="#000000"></path><path d="M63.618 80.168h1.344l.193-6.191h-1.73z" fill="#000000" opacity="1" data-original="#000000"></path><circle cx="75.295" cy="78.942" r="1.355" fill="#000000" opacity="1" data-original="#000000"></circle><path d="M62.956 80.297a1.354 1.354 0 1 0 2.707 0 1.354 1.354 0 0 0-2.707 0z" fill="#000000" opacity="1" data-original="#000000"></path><circle cx="53.703" cy="78.362" r="1.355" fill="#000000" opacity="1" data-original="#000000"></circle><path d="M74.154 67.957a.216.216 0 0 0 .035-.304l-1.873-2.359-.073-.018c-.04-.009-3.658-.883-4.616-1.143a.217.217 0 0 0-.113.418c.885.239 3.791.943 4.484 1.11l.118.076 1.734 2.185a.216.216 0 0 0 .304.035z" fill="#000000" opacity="1" data-original="#000000"></path><path d="m75.146 68.299-1.857-1.971-.505.343 1.38 2.397z" fill="#000000" opacity="1" data-original="#000000"></path><path fill="#593017" d="M59.97 63.212a9.23 9.23 0 0 1-2.5.644c-6.45.711-8.109-4.285-7.896-5.459s.704-5.208 7.854-5.849c0 0-2.901-.912-6.178.867-3.277 1.78-2.741 6.442-2.416 6.973.324.53 1.944 4.919 8.407 4.41.938-.073 1.851-.29 2.729-.606z" opacity="1" data-original="#593017"></path><path fill="#0080aa" d="M52.253 58.564c-.429 1.121-1.026 1.76-1.669 2.753-.456.704-6.472 8.217-6.877 8.71.455.469.827.778 1.101.978 1.214-1.262 5.676-4.595 7.476-6.059 2.056-1.672 2.378-3.262 2.407-4.182.03-.92 1.41-2.851 1.41-2.851.208-.856-1.414-1.863-1.899-1.833-.374.023-1.499 1.307-1.949 2.484z" opacity="1" data-original="#0080aa"></path><path fill="#ffbf80" d="M52.873 57.392a4.307 4.307 0 0 0-.432.769c.63.36 1.649.884 2.375.978 0-.001-.936-.491-1.943-1.747zM52.907 61.438s-.655-.957-1.54-1.04c0 0 .609.903 1.54 1.04z" opacity="1" data-original="#ffbf80"></path><path fill="#ffdb72" d="M58.275 24.774s-3.374-1.412-3.893 1.91c-.347 2.226.882 3.839.94 4.855.058 1.017-1.088 2.958-.049 5.189 1.039 2.232 4.274 2.842 4.274 2.842s-1.658-3.557-1.16-4.801c.496-1.243.788-8.359-.112-9.995z" opacity="1" data-original="#ffdb72"></path><path fill="#ffa182" d="M58.248 39.046c.865-.215.299 6.76-.683 11.586 0 0-2.168-.589-2.251-1.901-.084-1.313.414-9.058 2.934-9.685z" opacity="1" data-original="#ffa182"></path><path fill="#ffa182" d="M56.742 48.371s-7.484.516-10.336 1.268l.707 1.027s9.658.277 10.452-.034c0 0 .157-2.2-.823-2.261z" opacity="1" data-original="#ffa182"></path><path fill="#d0cece" d="M59.026 47.607s.985-8.176-.735-8.817c0 0-2.837.25-3.083 7.947 0 0 1.764.866 3.818.87z" opacity="1" data-original="#d0cece"></path><path fill="#ffa182" d="M43.613 50.285s-1.126.078-1.319.487-.168 1.376.165 1.353c.332-.024.513-1.112.513-1.112l.776-.084z" opacity="1" data-original="#ffa182"></path><path fill="#ffa182" d="M47.368 50.581s.342-1.108-.561-1.104c-1.507.007-3.459-.808-4.107.729 0 0-.062.861 1.934.871 1.995.009 2.734-.496 2.734-.496z" opacity="1" data-original="#ffa182"></path><path fill="#ffa182" d="M41.287 49.778s-.856 1.396-.185 1.179c.67-.217.936-.906.936-.906l1.358-.026.578-.731c.001-.001-2.294.082-2.687.484z" opacity="1" data-original="#ffa182"></path><path fill="#ffa182" d="M43.759 49.691s-1.486.011-1.861.464c-.375.452-.952.931-.591 1.098s1.271-.777 1.271-.777l1.46.034zM44.934 50.568l-.395.643s-1.959-.129-1.657.345c.302.473 2.169.332 2.169.332l1.906-1.131c0 .001-1.301-.54-2.023-.189z" opacity="1" data-original="#ffa182"></path><path fill="#e3a809" d="M56.387 27.589s.535 10.742 2.808 11.666c2.271.924 5.967-2.762 5.967-2.762l-1.358-7.571z" opacity="1" data-original="#e3a809"></path><path fill="#ebebeb" d="M59.45 53.395c.569-1.508-.49-3.421-.98-4.845 1.697-.206 5.693-.557 6.403.574.555.885.596 3.873-.239 6.649-.376 1.255-.932 2.466-1.701 3.42-1.148.047-2.301 0-3.286-.142-2.397-.342-1.386-2.266-.755-4.141.171-.507.372-1.021.558-1.515zM57.605 46.979c-.817-.674-.89-2.063-.372-2.971.518-.907-.424-3.447-.138-4.162.269-.668 1.075-1.125 2.605-1.559-.1.848.154 1.598 1.319 1.686 2.134.163 3.197-1.272 3.637-2.044 3.438.509 3.927 3.177 3.927 3.177.323 1.686-.229 3.364-.857 5.08-1.774.844-4.978 1.675-10.121.793z" opacity="1" data-original="#ebebeb"></path><path fill="#c0bebd" d="M67.727 46.187c-.484 1.322-1.013 2.666-1.22 4.053-.243 1.62.605 3.146 1.338 4.437.707 1.248 1.307 2.277.71 2.962-.822.943-3.216 1.457-5.622 1.556.77-.954 1.325-2.165 1.701-3.42.835-2.776.794-5.765.239-6.649-.71-1.131-4.706-.78-6.403-.574-.26-.757-.58-1.338-.864-1.571 5.142.88 8.346.049 10.121-.794z" opacity="1" data-original="#c0bebd"></path><path fill="#ffb367" d="M59.388 38.38c.489 2.598 1.533 3.277 1.533 3.277 3.462-1.482 4.03-3.243 4.118-3.66-1.7-.233-1.988-2.996-1.988-2.996l-2.479.15s.057.254.079.625c.044.732-.042 1.921-.95 2.511-.107.031-.213.062-.313.093z" opacity="1" data-original="#ffb367"></path><path fill="#0090c0" d="M52.998 59.421c-.254.163-2.024 2.78.739 2.826 2.422.042 9.226 1.511 12.289-.251-.241-.857 1.166-3.809-2.016-4.782-1.494.4-10.69 2.003-11.012 2.207z" opacity="1" data-original="#0090c0"></path><path fill="#ffbf80" d="M57.521 58.71c.149.562.489.995.489.995a2.123 2.123 0 0 0-.338-1.053z" opacity="1" data-original="#ffbf80"></path><path fill="#ff8d83" d="M47.929 48.43c.52-.154 1.571-.74 1.571-.74l1.308.116-1.349-.212c-.036.015-1.104.52-1.53.836z" opacity="1" data-original="#ff8d83"></path><path fill="#ffbf80" d="M47.994 46.435c.16.275 1.28.078 1.28.078.319.219 1.398.652 1.464.679-.075-.015-1.146-.227-1.406-.184-.268.044-1.855 1.279-1.67 1.44.037.032.135.021.267-.019.427-.315 1.494-.82 1.53-.836l1.349.212-1.308-.116s-1.052.586-1.571.74c-.135.1-.205.181-.159.222.193.172 1.587-.314 1.751-.39.164-.077.971.359.971.359-.187.173-2.533.698-2.481.976.053.278 1.957-.118 2.174-.251.218-.132 1.696.144 2.141.061s1.773-.756 1.797-.854c.174-.734-.262-1.183-.262-1.183-.723.009-2.18-.489-2.532-.493-.35-.003-1.863-.889-1.863-.889s-1.633.173-1.472.448zM67.284 39.068c.889-.18-.331 7.143-1.766 12.179 0 0-2.122-.738-2.083-2.126.039-1.389 1.259-9.527 3.849-10.053z" opacity="1" data-original="#ffbf80"></path><path fill="#ffbf80" d="M65.282 49.13s-9.227-1.689-12.176-1.731l.405 1.18s11.107 3.036 11.955 2.949c.001 0 .743-2.077-.184-2.398z" opacity="1" data-original="#ffbf80"></path><path fill="#d0cece" d="M67.201 48.31s3.513-6.105.158-9.247c0 0-2.905-.084-3.912 8.126 0-.001 1.689 1.011 3.754 1.121z" opacity="1" data-original="#d0cece"></path><path fill="#ffbf80" d="M57.848 25.527c-1.958.767-3.033 2.918-2.414 4.926l.061.186c1.028 2.998.442.986.607 3.099.166 2.113 2.768 3.969 3.637 3.973.868.005 4.642-2.701 4.913-5.001s-.428-5.332-.877-5.866c-.623-.74-2.137-2.799-5.927-1.317z" opacity="1" data-original="#ffbf80"></path><path fill="#ea680d" d="M61.626 29.75s-1.968-.42-3.161.032l-.086-.541s.965-.267 1.247-.236c.363.04 1.972.55 1.972.55zM56.626 29.751l-.013.476s-.789-.257-1.04.396l-.145-.39s.147-.374.537-.475c.391-.099.661-.007.661-.007z" opacity="1" data-original="#ea680d"></path><path fill="#fb4a3a" d="M57.356 30.584s.503 1.748-.288 2.607c0 0-.206.098-.16.259s.377.469.377.469l.062-.096s-.435-.245-.317-.445c.12-.2.533-.395.593-1.388.062-.993-.267-1.406-.267-1.406zM58.354 33.421s.148.189-.131.292c0 0 .127-.139.131-.292zM57.969 33.626s.054.1-.07.129c-.125.029-.303-.045-.303-.045s.168-.136.373-.084z" opacity="1" data-original="#fb4a3a"></path><path fill="#92341c" d="M57.443 35.101c.007.342.707 1.224 1.857.883 1.141-.346 1.04-1.425 1.04-1.425l-.175.03-2.564.484z" opacity="1" data-original="#92341c"></path><path fill="#ffffff" d="M57.602 35.073c.03.176.125.327.295.373.448.109 1.842-.155 2.147-.426.112-.1.13-.29.122-.432zM57.047 32.314l-.002.001zM57.045 32.316l.006-.006-.004.005.06-.056.043-.062.058-.092.028-.068c.048-.115.089-.249.119-.418a4.193 4.193 0 0 0-.275-.562c-.147-.244-.346-.383-.531-.374-.178.011-.312.153-.37.394l-.004.014c-.088.386-.25.604-.252.606l-.002.003.002.004c.003.005.172.24.393.438l.033.028.088.069.046.031.145.077.065.026.077.017.073.002.053.002.053-.015.038-.027zm.121-.144.012-.02zm.11-.241v.001zm-.544.451.006.002z" opacity="1" data-original="#ffffff"></path><path fill="#6c3506" d="M56.339 31.957c.03.108.072.205.119.286l.021.014.146.086.067.027.078.019.073.003.054.003.052-.015.039-.028.056-.036.001-.001.001-.001h.001l.038-.036.001-.001a1.101 1.101 0 0 0-.007-.597c-.104-.379-.354-.625-.558-.548-.204.074-.284.445-.182.825z" opacity="1" data-original="#6c3506"></path><path fill="#491b02" d="M56.919 31.776c.055.197.008.391-.105.432-.112.042-.247-.085-.302-.282-.053-.198-.007-.391.106-.432.111-.043.248.085.301.282z" opacity="1" data-original="#491b02"></path><path fill="#dfe0e0" d="m57.059 31.615.019.063c.018.066.03.131.037.195l.114.029.011-.241z" opacity="1" data-original="#dfe0e0"></path><path fill="#c9c1ba" d="m57.03 31.608-.011.241.097.025a1.26 1.26 0 0 0-.056-.258z" opacity="1" data-original="#c9c1ba"></path><path fill="#e15b0e" d="M57.354 31.62s-.362-1.299-1.053-1.003c-.625.267-.577.763-.577.763l.252-.027.384-.361.2-.07h.255l.165.12.169.199.093.161.06.11z" opacity="1" data-original="#e15b0e"></path><path fill="#494e53" d="m55.724 31.38.199.324s.146-.179.274-.453c.149-.321.683-.459 1.005.082.05.084.1.178.152.287 0 0-.311-.724-.667-.833-.357-.11-.892.566-.963.593z" opacity="1" data-original="#494e53"></path><path fill="#e15b0e" d="M58.721 31.473s-.248-1.274.77-1.499c1.01-.221 1.78.836 1.78.836z" opacity="1" data-original="#e15b0e"></path><path fill="#ffffff" d="M59.628 31.965h.004zM59.635 31.965l.117.007.082.006.098-.01.094-.028.124-.035.124-.051.098-.054.208-.14.062-.049.116-.106.04-.041c.277-.284.441-.58.444-.586l.001-.004-.003-.001a2.358 2.358 0 0 1-.764-.439l-.013-.011a.97.97 0 0 0-.854-.187 1.03 1.03 0 0 0-.717.593c-.133.325-.171.641-.172.645.143.141.287.244.432.326l.085.049.15.059.108.034.133.024-.009-.003.016.002h-.003zm-.322-.087.032.013zm-.287-.156-.001-.001zm.818-1.509h-.002zm.355 1.671.011-.006z" opacity="1" data-original="#ffffff"></path><path fill="#6c3506" d="M59.072 31.413c.011.17.08.322.188.436l.126.049.108.038.134.026.004-.001.003.001.117.008.082.007.098-.011.093-.027.124-.037.124-.052.073-.041a.714.714 0 1 0-1.274-.396z" opacity="1" data-original="#6c3506"></path><path fill="#491b02" d="M59.394 31.393a.393.393 0 1 0 .784-.05.393.393 0 0 0-.784.05z" opacity="1" data-original="#491b02"></path><path fill="#494e53" d="m61.392 30.53-.15.347s-.392-.072-.718-.286c-.593-.39-1.43-.1-1.694.547-.041.1-.078.211-.109.334 0 0 .081-.94.638-1.207.332-.16.942-.033 1.409.095.317.087.568.174.624.17z" opacity="1" data-original="#494e53"></path><path fill="#dfe0e0" d="M60.427 30.996a.143.143 0 0 0-.029.003.708.708 0 0 1 .1.323l.002.043.014-.009a.207.207 0 0 0 .062-.269.172.172 0 0 0-.149-.091z" opacity="1" data-original="#dfe0e0"></path><path fill="#c9c1ba" d="M60.398 30.999a.163.163 0 0 0-.067.028.206.206 0 0 0-.062.268.17.17 0 0 0 .15.092.166.166 0 0 0 .082-.022.718.718 0 0 0-.103-.366z" opacity="1" data-original="#c9c1ba"></path><path fill="#ffdb72" d="M57.003 25.896s.958 3.907 6.567 3.517c0 0 1.444 5.034-1.032 9.32 0 0 2.337.152 3.456-1.844 0 0 .324.513-.285 1.156 0 0 1.062.394 1.762-1.1 0 0 .319.283.039.782 0 0 3.529-.559 2.399-3.34s-2.803-3.992-3.676-6.234-3.858-5.747-6.54-4.866c-2.836.931-2.69 2.609-2.69 2.609z" opacity="1" data-original="#ffdb72"></path><path fill="#ffdb72" d="M60.924 27.187s1.147 2.934 2.263 3.309c1.115.375 2.27 1.434 2.27 1.434l-.919-4.569zM58.867 26.522c-.227.438-1.364 2.261-3.845 2.719 0 0-.594-4.245 2.326-4.076 1.66.097 1.519 1.357 1.519 1.357z" opacity="1" data-original="#ffdb72"></path><path fill="#ffbb67" d="M57.689 25.498s1.968-1.924 4.25-.201c0 0-1.567-3.018-4.315-.268z" opacity="1" data-original="#ffbb67"></path><path fill="#ffbb67" d="M62.309 26.336s-2.08-2.576-4.249-1.294l-.37.456c-.001 0 2.134-.633 4.619.838zM57.689 25.498s-1.418-.409-2.35.33c0 0 .515-.854 2.385-.89z" opacity="1" data-original="#ffbb67"></path><path fill="#ffbb67" d="M57.656 25.161s-2.168.262-2.513 2.015c0 0 .761-1.431 2.545-1.688zM61.131 26.587s-1.638-1.51-3.369-.52l-.023.521c-.001.001.889-1.103 3.392-.001z" opacity="1" data-original="#ffbb67"></path><path fill="#ffbb67" d="m57.762 26.067-.023.521s-1.512-.533-2.709 1.19c-.001.001.673-2.039 2.732-1.711z" opacity="1" data-original="#ffbb67"></path><path fill="#ffbb67" d="m57.698 26.301.04.288s.821-.227 1.618.001c0 0-.63-.562-1.658-.289z" opacity="1" data-original="#ffbb67"></path><path fill="#ffbb67" d="M58.084 26.425c.29.811 1.129 1.855 2.556 2.275 0 0-2.051.106-2.958-2.22zM57.72 25.019c.654-.559 1.311-1.734 3.638-1.376 0 0-2.288-.86-3.796.937z" opacity="1" data-original="#ffbb67"></path><path fill="#0090c0" d="M66.959 60.342s1.838-1.654.913-3.339-3.823-.771-3.823-.771z" opacity="1" data-original="#0090c0"></path><path fill="#0080aa" d="M66.479 61.932s3.532-2.693 2.231-5.572l-.531-.953s-3.424.714-5.253.766c-1.852.052-3.992-.377-3.992-.377z" opacity="1" data-original="#0080aa"></path><path fill="#0080aa" d="m58.935 55.795-1.508.564 2.718 2.305 1.412-1.634z" opacity="1" data-original="#0080aa"></path><path fill="#0080aa" d="M55.386 55.671c-.482.019-.956.14-1.373.378-.988.563-.838 1.229-.495 1.719.287.41.715.698 1.191.849 7.415 2.328 10.58 4.207 11.771 3.315.527-1.457.525-3.905-.486-5.525-2.704-.506-8.762-.814-10.608-.736z" opacity="1" data-original="#0080aa"></path><path fill="#ffbf80" d="M41.271 71.733c-.245.315-.212 1.389.164 1.474.375.085 1.955-.074 2.57-1.189.075-.139.368-.56.549-.748a8.345 8.345 0 0 1-1.104-.976l-.009.009c-.352.43-1.925 1.115-2.17 1.43z" opacity="1" data-original="#ffbf80"></path><path fill="#aecad1" d="m45.056 71.183-.333.348s-1.183-.713-1.54-1.473l.333-.348s.62.783 1.54 1.473z" opacity="1" data-original="#aecad1"></path><path fill="#ffbf80" d="M63.519 30.858c.001-.007 1.116-1.883 2.158-.959 1.042.925.222 2.755-.375 2.92-.602.167-1.854-.004-1.882-.673-.028-.668.099-1.288.099-1.288z" opacity="1" data-original="#ffbf80"></path><path fill="#fb4a3a" d="M64.859 31.788c.021-.365-.296-1.678.817-1.238 0 0-.831-.13-.705.606l.024.127c.229-.13.55.044.55.044a.584.584 0 0 0-.525.089c.112.552.195.792-.252.779-.512-.014.07-.042.091-.407z" opacity="1" data-original="#fb4a3a"></path><path fill="#ffbf80" d="M54.37 80.855c-.038-.091.197-3.05.212-3.345a9.916 9.916 0 0 1-.683-.005 14.728 14.728 0 0 1-1.582-.162c-.05 1.307-.127 3.282-.241 3.512z" opacity="1" data-original="#ffbf80"></path><path fill="#0090c0" d="M54.329 59.191c-.914.06-2.596.165-1.965 2.792.422 1.755 2.354-2.43 1.965-2.792z" opacity="1" data-original="#0090c0"></path><path fill="#0090c0" d="M52.317 77.344c.61.095 1.136.142 1.582.162.252.01.479.011.683.005l.001-.025c.043-.894-.111-3.349-.001-4.031 0 0 .559-2.877 1.129-4.426.572-1.548.225-6.561-1.565-8.125-1.791-1.562-1.878-.589-1.878-.589s.246 11.977.049 17.029z" opacity="1" data-original="#0090c0"></path><path fill="#ffbf80" d="m52.311 62.693.01.696c.897.125 1.896-.18 1.896-.18l-.061-.432c-.944.306-1.551-.01-1.845-.084z" opacity="1" data-original="#ffbf80"></path><path fill="#aecad1" d="M54.803 77.179v.481s-1.605.302-2.539 0v-.481s1.179.137 2.539 0z" opacity="1" data-original="#aecad1"></path><path fill="#005b54" d="m52.417 81.402.653-1.197-.621-.555-2.247 2.554 1.563.05z" opacity="1" data-original="#005b54"></path><path fill="#e1e1e1" d="m47.757 83.604-.004.01v.006l-.001.054.001.009.026.058.003.006.046.029c.186.079.857.146 1.462.18.656.034 1.486.042 1.665-.053.102-.055.237-.15.393-.262.233-.165.503-.357.733-.455l.004-.002.159-.051.026-.006.037-.004.035-.001h.023c.3.026 1.991-.424 2.704-.619a.302.302 0 0 0 .219-.337l-.062-.41h-.001a4.87 4.87 0 0 0-.988-.095l-.058.002-.09.003-.08.004-.158.013-.039.004-.202.027-.016.003-.221.046-.005.001-.224.065-.006.002-.213.085-.015.006-.196.104-.021.013-.182.128-.011.011a1.997 1.997 0 0 1-.32.206l.016-.009-.057.03.039-.02-.132.066.018-.008-.08.037.055-.025-.14.063.02-.009-.107.046.07-.03-.143.059.023-.009-.146.056.086-.033-.136.052.029-.011c-.895.328-2.106.565-2.895.697a26.409 26.409 0 0 0-.797.121l-.103.078-.002.003-.016.019-.001.001-.021.038zm.925-.265-.088.015zm-.811.451-.007-.002zm.053.015-.01-.003zm.06.013-.008-.002zm4.294-1.488.033-.021zm.012.794.005-.001z" opacity="1" data-original="#e1e1e1"></path><path fill="#00ff3f" d="m51.566 82.649-.066.023zM51.898 82.519l-.017.007zM52.18 82.384l-.002.001zM52.046 82.451l-.008.004zM51.702 82.598l.036-.014zM51.5 82.672l-.117.041zM51.213 82.768l.17-.055-.023.008z" opacity="1" data-original="#00ff3f"></path><path fill="#00958c" d="M55.228 81.757s-.295-1.591-.73-1.994l-2.05.621s-1.247 1.655-1.661 1.602c-.414-.055-2.055-.191-2.51.367-.456.56-.372 1.104-.372 1.104s2.807.365 3.427-.124c.619-.49 2.498-1.829 3.896-1.576z" opacity="1" data-original="#00958c"></path><path fill="#aa3c00" d="M51.022 81.271c.152.055.305.104.452.143a5.348 5.348 0 0 1-.196-.434s-.047-.297.188-.214c.158.058.315.108.467.147a5.837 5.837 0 0 1-.201-.447s.003-.19.176-.201c.237.085.471.158.688.198.133.025.12.236-.014.212a4.51 4.51 0 0 1-.604-.163c.076.177.155.345.244.491l-.015.135-.015.018-.112.007a4.839 4.839 0 0 1-.562-.154c.074.176.155.344.243.492l-.014.135-.046.033-.077-.006a4.584 4.584 0 0 1-.569-.156c.075.177.155.345.244.492.07.115-.097.246-.166.131a4.755 4.755 0 0 1-.311-.632s-.024-.303.2-.227z" opacity="1" data-original="#aa3c00"></path><path fill="#005b54" d="m40.9 72.24 1.292-.438-.081-.828-3.382.355 1.115 1.096z" opacity="1" data-original="#005b54"></path><path fill="#e1e1e1" d="m35.98 70.704-.009.004-.004.004-.037.039-.006.008-.019.061-.002.006.013.053c.084.185.531.688.955 1.122.459.471 1.064 1.038 1.261 1.09.112.029.276.05.467.074.282.035.611.077.848.161l.004.002.151.069.023.015.03.021.025.023.018.017c.202.222 1.752 1.036 2.409 1.376.136.07.304.027.39-.1l.231-.344v-.001c-.003-.003-.256-.368-.664-.738l-.043-.038-.067-.059-.062-.052-.125-.098-.032-.024-.167-.116-.013-.009-.193-.115-.005-.003-.209-.103-.006-.003-.214-.082-.015-.005-.216-.057-.023-.005-.221-.029-.018-.002a1.994 1.994 0 0 1-.376-.065l.018.005-.062-.017.043.012-.143-.041.019.006-.084-.026.058.019-.146-.049.021.008-.11-.04.072.026-.146-.054.024.009-.146-.058.086.034-.135-.055.028.013c-.88-.365-1.932-1.012-2.601-1.447.235.153.52.333.826.518-.824-.496-1.487-.964-1.495-.969l-.13-.014-.003.001-.024.003h-.001l-.042.014zm.861.431-.074-.048zm-.902-.217-.003-.006zm.029.046-.005-.009zm.035.051-.004-.006zm4.167 1.813.039.008zm-.528.593.004.003z" opacity="1" data-original="#e1e1e1"></path><path fill="#00ff3f" d="m39.431 72.581-.064-.027zM39.764 72.71l-.018-.006zM40.062 72.802h-.002zM39.917 72.761l-.008-.002zM39.565 72.636l.035.015zM39.366 72.554l-.113-.05zM39.09 72.43l.163.074-.023-.01z" opacity="1" data-original="#00ff3f"></path><path fill="#00958c" d="M42.729 74.405s.86-1.37.813-1.962l-1.929-.932s-2.039.373-2.307.053c-.267-.32-1.382-1.532-2.096-1.43s-1.021.561-1.021.561 1.817 2.169 2.605 2.229c.788.061 3.078.348 3.935 1.481z" opacity="1" data-original="#00958c"></path><path fill="#aa3c00" d="M39.964 71.199c.074.145.153.284.236.412.042-.152.092-.302.148-.453 0 0 .168-.25.283-.029.077.149.159.293.243.425.045-.155.097-.312.155-.466 0 0 .131-.139.266-.028.117.223.24.435.371.611.081.108-.071.255-.154.146a4.707 4.707 0 0 1-.332-.528 4.313 4.313 0 0 0-.154.526l-.102.089-.022.003-.087-.071a4.567 4.567 0 0 1-.309-.494c-.064.18-.12.358-.155.527l-.102.089-.057-.006-.052-.057a4.768 4.768 0 0 1-.315-.501 3.934 3.934 0 0 0-.152.527c-.026.133-.238.116-.212-.017.047-.226.118-.45.2-.674.002.001.189-.239.303-.031z" opacity="1" data-original="#aa3c00"></path><path fill="#8c4c24" d="M74.33 61.596s-3.591 3.183-16.411 3.148l-.052-.46 5.552-2.585 3.377-3.353 2.219-2 2.261-1.349 1.704-.111 1.019.83.614 1.417.018 1.608z" opacity="1" data-original="#8c4c24"></path><path fill="#593017" d="M71.663 54.72c-4.604 1.101-8.148 7.821-13.932 9.103l.188.848c5.912-1.218 11.129-7.663 11.409-7.736.3-.077 6.112-6.111 5.002 4.662 0-.001 2.188-8.038-2.667-6.877z" opacity="1" data-original="#593017"></path><path fill="#f5775e" d="m35.059 52.719-2.73 30.429h-.598l1.919-30.429z" opacity="1" data-original="#f5775e"></path><path fill="#dc4f31" d="m35.482 52.719-2.729 30.429h-.597l1.918-30.429z" opacity="1" data-original="#dc4f31"></path><path fill="#f5775e" d="m24.2 52.719-2.728 30.429h-.598l1.919-30.429z" opacity="1" data-original="#f5775e"></path><path fill="#dc4f31" d="m24.625 52.719-2.729 30.429h-.598l1.919-30.429z" opacity="1" data-original="#dc4f31"></path><path fill="#f2826f" d="M20.927 51.729H57.7v.93H20.927z" opacity="1" data-original="#f2826f"></path><path fill="#b52405" d="M57.7 51.789h15.458v.93H57.7z" opacity="1" data-original="#b52405"></path><path fill="#f5775e" d="m58.434 52.719 2.729 30.429h.598l-1.919-30.429z" opacity="1" data-original="#f5775e"></path><path fill="#dc4f31" d="m58.01 52.719 2.729 30.429h.597l-1.919-30.429z" opacity="1" data-original="#dc4f31"></path><path fill="#f5775e" d="m69.291 52.719 2.73 30.429h.597l-1.919-30.429z" opacity="1" data-original="#f5775e"></path><path fill="#dc4f31" d="m68.867 52.719 2.73 30.429h.596l-1.919-30.429z" opacity="1" data-original="#dc4f31"></path><path d="m30.305 51.171.576-.104-3.625-19.875a.917.917 0 0 1 .904-1.084h3.741v-.586H28.16a1.502 1.502 0 0 0-1.48 1.775z" fill="#000000" opacity="1" data-original="#000000"></path><path d="M29.987 30.44h4.141c0-.691-.56-1.25-1.25-1.25h-1.641c-.69 0-1.25.559-1.25 1.25z" fill="#000000" opacity="1" data-original="#000000"></path><path d="M42.954 29.19H31.237l-1.25 1.25h13.514z" fill="#000000" opacity="1" data-original="#000000"></path><path fill="#565656" d="M41.704 30.44h4.14c0-.691-.56-1.25-1.249-1.25h-1.641c-.69 0-1.25.559-1.25 1.25z" opacity="1" data-original="#565656"></path><path fill="#ffffa3" d="M30.9 30.79h13.694a.351.351 0 0 0 .351-.351H30.549c0 .194.158.351.351.351z" opacity="1" data-original="#ffffa3"></path><path d="M29.637 50.833h4.998v.988h-4.998z" fill="#000000" opacity="1" data-original="#000000"></path><path fill="#565656" d="M33.151 50.833h4.101v.988h-4.101z" opacity="1" data-original="#565656"></path><path fill="#262655" d="M59.869 51.073h.458v.328h-.458z" opacity="1" data-original="#262655"></path><path d="M59.412 51.073h.457v.328h-.457z" fill="#000000" opacity="1" data-original="#000000"></path><path fill="#262655" d="M58.892 51.047h.457v.329h-.457z" opacity="1" data-original="#262655"></path><path d="M58.434 51.047h.458v.329h-.458z" fill="#000000" opacity="1" data-original="#000000"></path><path fill="#262655" d="M57.913 51.021h.457v.328h-.457z" opacity="1" data-original="#262655"></path><path d="M57.455 51.021h.458v.328h-.458z" fill="#000000" opacity="1" data-original="#000000"></path><path fill="#262655" d="M56.935 50.996h.457v.328h-.457z" opacity="1" data-original="#262655"></path><path d="M56.477 50.996h.458v.328h-.458z" fill="#000000" opacity="1" data-original="#000000"></path><path fill="#262655" d="M55.956 50.971h.457v.328h-.457z" opacity="1" data-original="#262655"></path><path d="M55.499 50.971h.457v.328h-.457z" fill="#000000" opacity="1" data-original="#000000"></path><path fill="#262655" d="M54.978 50.944h.458v.329h-.458z" opacity="1" data-original="#262655"></path><path d="M54.521 50.944h.457v.329h-.457z" fill="#000000" opacity="1" data-original="#000000"></path><path fill="#262655" d="M53.931 50.944h.457v.329h-.457z" opacity="1" data-original="#262655"></path><path d="M53.473 50.944h.458v.329h-.458z" fill="#000000" opacity="1" data-original="#000000"></path><path fill="#262655" d="M52.879 50.944h.457v.329h-.457z" opacity="1" data-original="#262655"></path><path d="M52.422 50.944h.457v.329h-.457z" fill="#000000" opacity="1" data-original="#000000"></path><path fill="#262655" d="M51.827 50.944h.458v.329h-.458z" opacity="1" data-original="#262655"></path><path d="M51.37 50.944h.457v.329h-.457z" fill="#000000" opacity="1" data-original="#000000"></path><path fill="#262655" d="M50.776 50.944h.458v.329h-.458z" opacity="1" data-original="#262655"></path><path d="M50.319 50.944h.457v.329h-.457z" fill="#000000" opacity="1" data-original="#000000"></path><path fill="#262655" d="M49.726 50.944h.457v.329h-.457z" opacity="1" data-original="#262655"></path><path d="M49.268 50.944h.458v.329h-.458z" fill="#000000" opacity="1" data-original="#000000"></path><path fill="#262655" d="M48.674 50.944h.458v.329h-.458z" opacity="1" data-original="#262655"></path><path d="M48.217 50.944h.457v.329h-.457z" fill="#000000" opacity="1" data-original="#000000"></path><path fill="#262655" d="M47.623 50.944h.457v.329h-.457z" opacity="1" data-original="#262655"></path><path d="M47.165 50.944h.458v.329h-.458z" fill="#000000" opacity="1" data-original="#000000"></path><path fill="#262655" d="M46.571 50.944h.457v.329h-.457z" opacity="1" data-original="#262655"></path><path d="M46.114 50.944h.457v.329h-.457z" fill="#000000" opacity="1" data-original="#000000"></path><path fill="#262655" d="M45.52 50.944h.458v.329h-.458z" opacity="1" data-original="#262655"></path><path d="M45.062 50.944h.457v.329h-.457z" fill="#000000" opacity="1" data-original="#000000"></path><path fill="#262655" d="M44.469 50.944h.457v.329h-.457z" opacity="1" data-original="#262655"></path><path d="M44.012 50.944h.457v.329h-.457z" fill="#000000" opacity="1" data-original="#000000"></path><path fill="#262655" d="M43.418 50.944h.457v.329h-.457z" opacity="1" data-original="#262655"></path><path d="M42.96 50.944h.458v.329h-.458zM54.702 51.286l6.315.154v.343h-6.315z" fill="#000000" opacity="1" data-original="#000000"></path><path fill="#007b7e" d="M61.185 51.329v.501h-.168v-.17l-6.069-.279v.449h-.978v-.78z" opacity="1" data-original="#007b7e"></path><path d="M42.656 51.05h11.313v.78H42.656z" fill="#000000" opacity="1" data-original="#000000"></path><path fill="#002122" d="M30.953 44.924h2.298v6.759h-2.298z" opacity="1" data-original="#002122"></path><path fill="#df631f" d="M30.854 44.823h2.498v6.96h-2.498zm2.297.201h-2.098v6.558h2.098z" opacity="1" data-original="#df631f"></path><path d="M31.745 45.693a.356.356 0 1 0 .713 0 .356.356 0 0 0-.713 0zM31.054 48.45h2.098v1.08h-2.098z" fill="#000000" opacity="1" data-original="#000000"></path><path fill="#ff5a1c" d="m32.546 48.785.108.11.11-.11-.11-.108z" opacity="1" data-original="#ff5a1c"></path><path d="m32.591 48.785.063.065.065-.065-.065-.063z" fill="#000000" opacity="1" data-original="#000000"></path><path fill="#00ff00" d="m32.203 48.785.109.11.109-.11-.109-.108z" opacity="1" data-original="#00ff00"></path><path d="m32.248 48.785.064.065.064-.065-.064-.063z" fill="#000000" opacity="1" data-original="#000000"></path><path fill="#db7a45" d="M34.495 51.783h-1.143v-6.96h.876z" opacity="1" data-original="#db7a45"></path><path fill="#7e787c" d="M49.843 32.628c.103 2.554.474 12.003.584 14.802a.654.654 0 0 1-.749.671l-14.622-.378a.653.653 0 0 1-.557-.596l-1.045-13.352a.654.654 0 0 1 .642-.705l15.083-1.069a.654.654 0 0 1 .664.627z" opacity="1" data-original="#7e787c"></path><path fill="#b8bdb9" d="m33.06 33.799 1.043 13.352a.655.655 0 0 0 .558.596l2.11.096 1.84-6.834 1.396-.298.432 7.207 8.846.208a.655.655 0 0 0 .749-.671c-.11-2.8-.482-12.249-.585-14.802a.656.656 0 0 0-.665-.629l-15.081 1.07a.652.652 0 0 0-.643.705z" opacity="1" data-original="#b8bdb9"></path><path fill="#7e787c" d="m39.399 51.862.225.013.126-.016 4.07-.149.137-.167-.023-.084-4.196.185-.126.016-.226-.012a.95.95 0 0 1-.778-.78.955.955 0 0 0 .791.994z" opacity="1" data-original="#7e787c"></path><path fill="#7e787c" d="m39.391 51.861.009.001h.002l.033-.196a.756.756 0 0 1-.622-.854l1.244-9.254-.051-.849-1.359 10.212c-.059.407.339.865.744.94z" opacity="1" data-original="#7e787c"></path><path fill="#9ca19e" d="M35.208 51.421a.988.988 0 0 0 .657.44h3.525c-.404-.075-.803-.533-.744-.939l1.359-10.212-.705-.024-1.686-.063-.02.076-.008.028-2.498 9.914a.996.996 0 0 0 .12.78zm2.237-7.109c-.032-.54.295-.997.732-1.023l.089.002c.29.132.508.464.532.865.032.539-.298.997-.732 1.023l-.091-.003c-.289-.13-.505-.462-.53-.864z" opacity="1" data-original="#9ca19e"></path><path fill="#737674" d="M37.218 44.251c.03.502.361.896.758.926-.29-.131-.506-.463-.53-.864-.032-.54.295-.997.732-1.023l.089.002a.647.647 0 0 0-.316-.062c-.438.026-.765.483-.733 1.021z" opacity="1" data-original="#737674"></path><path fill="#9ca19e" d="M37.979 38.491c.038.645.492 1.142 1.014 1.11.521-.031.912-.579.873-1.223-.038-.644-.492-1.142-1.013-1.11s-.913.58-.874 1.223z" opacity="1" data-original="#9ca19e"></path><path fill="#002122" d="M50.115 44.924h2.298v6.759h-2.298z" opacity="1" data-original="#002122"></path><path fill="#df631f" d="M50.016 44.823h2.498v6.96h-2.498zm2.296.201h-2.097v6.558h2.097z" opacity="1" data-original="#df631f"></path><path d="M50.907 45.693a.356.356 0 1 0 .713 0 .356.356 0 0 0-.713 0zM50.216 48.45h2.097v1.08h-2.097z" fill="#000000" opacity="1" data-original="#000000"></path><path fill="#ff5a1c" d="m51.699 48.793.109-.108.108.11-.109.108z" opacity="1" data-original="#ff5a1c"></path><path d="m51.741 48.786.065-.064.064.064-.064.064z" fill="#000000" opacity="1" data-original="#000000"></path><path fill="#00ff00" d="m51.364 48.785.11.11.108-.11-.108-.108z" opacity="1" data-original="#00ff00"></path><path d="m51.399 48.786.064-.065.064.065-.064.064z" fill="#000000" opacity="1" data-original="#000000"></path><path fill="#db7a45" d="M53.656 51.783h-1.142v-6.96h.875z" opacity="1" data-original="#db7a45"></path></g></svg>