<svg xmlns="http://www.w3.org/2000/svg" version="1.1" xmlns:xlink="http://www.w3.org/1999/xlink"
    width="512" height="512" x="0" y="0" viewBox="0 0 500 500"
    style="enable-background:new 0 0 512 512" xml:space="preserve"><g><path fill="#655e56" d="M244.3 257.1 222.4 379l2.7 1.3 26.7-119z" opacity="1" data-original="#655e56"></path><path fill="#958880" d="M218.3 273.6 193 397.3l-5.7-1.1 19.3-122.6z" opacity="1" data-original="#958880"></path><g fill="#342e2b"><path d="M220.1 377.7h7.5v2.6h-7.5zM185.6 396h8.9v2.6h-8.9z" fill="#342e2b" opacity="1" data-original="#342e2b"></path></g><path fill="#ffb100" d="M258 151c.4-2.7 2.7-4.7 5.6-4.8l74.7-2.2h.1l-6.9 107.5v.1l-87-5.8h-.1zM244.6 244l-3.9 11.1-33.9 11.5-9.8 9.6-1-12.7 10.8-8.1z" opacity="1" data-original="#ffb100"></path><path fill="#cf8300" d="m331.4 251.6-86.8-7.6-37.8 11.4-10.8 8.1 86.9 7.6 10.8-8.1z" opacity="1" data-original="#cf8300"></path><path fill="#cf8300" d="M334.7 147.4c.1-1.1.8-2.1 1.8-2.7s2.2-.8 3.3-.4c1.8.5 2.9 2.2 2.8 4l-11 103.4v.1l-9.4 2.8h-.1z" opacity="1" data-original="#cf8300"></path><path fill="#655e56" d="M324.6 260.1 345.1 379l-2.7 1.3-25.3-116z" opacity="1" data-original="#655e56"></path><path fill="#958880" d="m278.1 275.8 20.6 123.7 5.8-1.1-14.8-122.6z" opacity="1" data-original="#958880"></path><g fill="#342e2b"><path d="M347.379 380.328h-7.5v-2.6h7.5zM306.079 400.776h-8.9v-2.6h8.9z" fill="#342e2b" opacity="1" data-original="#342e2b"></path></g><g fill="#ffb100"><path d="m282.9 271.1-86.9-7.6 1 12.7 86.9 7.6z" fill="#ffb100" opacity="1" data-original="#ffb100"></path><path d="m331.4 251.6-3.8 11.1-33.9 11.5-9.8 9.6-1-12.7 10.8-8.1z" fill="#ffb100" opacity="1" data-original="#ffb100"></path></g><path fill="#7f2d13" d="m156.4 269.6 13.3-2.9-.5-13.9s29.7.4 47.5-3.6c11.6-2.6 39.9-7.2 58.5-10.5 3.2-6.2 5.8-13 5.8-13s-12.7.1-17.8-.5-99.5 17.7-106.1 20.2c-6.5 2.6-.7 24.2-.7 24.2z" opacity="1" data-original="#7f2d13"></path><path fill="#672208" d="m169.3 252.8 4.8 6 7.4.4s83.1-7.2 88.4-12.3c1.8-1.8 3.7-4.8 5.4-8.1-18.6 3.3-46.9 7.9-58.5 10.5-17.8 3.9-47.5 3.5-47.5 3.5z" opacity="1" data-original="#672208"></path><path fill="#672208" d="m174 258.8.3 9.4-5.3-1.7.3-13.7s4.6 3.3 4.7 6z" opacity="1" data-original="#672208"></path><path fill="#661100" d="m194 376.7.1 5.2s-44.9 13.9-54.8 8.3 11.2-7.8 11.2-7.8z" opacity="1" data-original="#661100"></path><path fill="#f01e14" d="M192.9 367.1s2.6 10.5 0 12.4c-2.6 1.8-33.3 9.4-34.8 9.2s-19.6-.2-20.6-2.2c-1.1-2 6-13 14.4-11.5s21.3-5 24.2-7.9 4.1-8.4 4.1-8.4h11z" opacity="1" data-original="#f01e14"></path><path fill="#9f3629" d="M157.1 376c.1 0 14.9-4.1 18.1-6.4 2.7-1.9 4.2-6.2 4.6-7.4.2-.5.4-.9.7-1.2s.7-.4 1-.4.7.3.9.7c.6.9.7 2.2.2 3.4-.8 1.8-2.5 5.2-4.7 7.2-3.2 2.8-17.2 5.9-17.8 6.1l-3.1-2z" opacity="1" data-original="#9f3629"></path><path fill="#7f2d13" d="M175 356.7c-.9 1.7-8.7 9.9-2.2 8.3 3.3-.8 8.8.2 13.5 1.5-1.3-41.9-17.7-88.9-16.4-92.5 1.3-3.8-1.5-6.3-1.5-6.3l.6-1.2c-5 .6-12.5 3.1-12.5 3.1-1.2 10.3 17 80.4 16 82.7s3.4 2.7 2.5 4.4z" opacity="1" data-original="#7f2d13"></path><path fill="#672208" d="M169.9 274c-1.3 3.6 15.1 50.6 16.4 92.5 4.6 1.2 8.3 2.6 8.3 2.6 1.6-23.4-18.5-86-18.7-87.2s-3.5-8.4-1.8-10.3c1.6-1.8.2-3.3.2-3.3-.8-.8-3.2-2-5.3-1.7l-.6 1.2c0-.1 2.9 2.4 1.5 6.2z" opacity="1" data-original="#672208"></path><path fill="#661100" d="M238.3 401.6v-2.4s-19.7 5.3-33.2-1.8l-.6 3.8c-.1.1 15.7 10.7 33.8.4z" opacity="1" data-original="#661100"></path><path fill="#f01e14" d="M238.3 399.2s-3.5-11.8-18.3-10.4-14.9 8.6-14.9 8.6 14.1 8.1 33.2 1.8z" opacity="1" data-original="#f01e14"></path><path fill="#9f3629" d="M228.8 392s.8-25.8-2.1-26.9-11.3-1.4-11.6 1.9c-.2 3.3-4 26.4-4 26.4z" opacity="1" data-original="#9f3629"></path><g fill="#f01e14"><path d="m229.3 368 9 31.2s-12.4-7-13.3-10.7 0-20.5 0-20.5zM218.7 368s.5 18.4-.5 20.5c-1.7 3.4-13.2 9-13.2 9l7.5-31.1z" fill="#f01e14" opacity="1" data-original="#f01e14"></path></g><path fill="#7f2d13" d="M196.8 271.9c.3 2.7 18.4 85.4 15.1 89-3.3 3.5-1.8 7.2.2 7.2 1.4 0 10.8 3.1 16.6 5-1-56.1-15.1-98.1-16.4-100s3.1-4.7.3-8.1c-.3-.3-.5-.6-.7-.9.7-1.1 1.4-2.3 2-3.2-.7-.6-1.1-1-1.1-1-4.5-4.4-16-1-16-1s-.3 10.3 0 13z" opacity="1" data-original="#7f2d13"></path><path fill="#672208" d="M212.3 273.1c1.3 1.9 15.4 43.9 16.4 100 2.6.9 4.5 1.5 4.5 1.5-2.3-85.8-18.5-101.7-18.1-102.6s2.6-2.5 4-4c1.1-1.2-3.1-5.2-5.2-7.1-.6 1-1.3 2.1-2 3.2.2.3.4.6.7.9 2.8 3.4-1.6 6.1-.3 8.1z" opacity="1" data-original="#672208"></path><path fill="#7f2d13" d="M213.2 265.9c0-.2.3-1.5.4-1.6 3.1-5.9 44.4 2.9 48.8 4.2 4.4 1.4 31 2.9 42.3-5.3 8.9-6.5 5.5-27.2 3.6-33.9l-30.7 3.6s-9.9 2.1-21.9 4.8c-17.2 3.8-38.9 8.9-42.7 11-6.4 3.5-16.3 3.2-16.4 10.1.1 2.1 6.7 5.3 16.6 7.1z" opacity="1" data-original="#7f2d13"></path><path fill="#672208" d="M213.5 264.7c23.5 4.4 64.1 7.6 69.1 6.8 7-1.1 21.8-3.8 26.6-7.9 3.3-2.8 5.1-4.6 5.8-14.7.8-13.2.2-23.5.2-23.5l-6.9 3.9c1.9 6.7 4.2 23-4.7 29.5-11.3 8.2-36.8 11.1-41.2 9.7s-45.7-10.1-48.8-4.2c-.1.1-.1.3-.1.4z" opacity="1" data-original="#672208"></path><path fill="#ff9248" d="m209 82.8-10.7 53.7-1.8 4.1c7.4 3 15.7-.1 15.7-.1l2.6-57z" opacity="1" data-original="#ff9248"></path><path fill="#f5760a" d="M195.6 139.2s-2 3.8 3.9 7.8 14.4-.3 14.4-.3c1.1-1.3 1.5-3.3 1.6-5.6-.1.1-.1.2-.2.4 0 0-7.7 5.6-14.2 2.7-3.7-1.7-4.8-3.7-5.1-5.1z" opacity="1" data-original="#f5760a"></path><path fill="#ff9248" d="M195.9 139c.3 1.5 1.5 3.5 5.1 5.1 6.5 3 14.2-2.7 14.2-2.7.1-.1.1-.2.2-.4.1-5.2-1.7-11.4-1.7-11.4z" opacity="1" data-original="#ff9248"></path><path fill="#ffe6d2" d="M226.7 120.2c-2.2 1-5 2-7.2 2.7-2.1.7-3.7 1.2-3.7 1.2l1.4 4.8c.8-2.2 1.4-3.6 1.4-3.6s1.4 3 3.7 6.2c1.5 2.2 3.5 4.5 5.5 6 5.1 3.6 17-5 22.8-1.8 3.2 1.8 10.6 1.8 16.6 1.5 1.1-.2 2.2-.5 3.3-.7 1.1-.3 11.1-3.9 8.1-10.1-3-6.3-5.3-10.2-12.2-10.7-9 .4-16.9 2.7-21 4.3-4.4 1.6-14.5-1.8-18.7.2z" opacity="1" data-original="#ffe6d2"></path><path fill="#f6d69b" d="M218.5 125.2s-.6 1.4-1.4 3.6l5 16.8s7.3 1.4 12.6-.7c5.3-2.2 14.7-5.6 22.2-6.2 2.5-.2 6.3-.7 10.3-1.5-6 .3-13.4.3-16.6-1.5-5.8-3.2-17.6 5.3-22.8 1.8-5.2-3.6-9.3-12.3-9.3-12.3z" opacity="1" data-original="#f6d69b"></path><path fill="#f5760a" d="M207.5 62.8s-3.2-3.1-4.6-3.4c-1.3-.3-5.6-.9-6.3-.2s1.5 2.3 3.4 1.8c0 0 1.8.7 2.9.7 0 0 1.8 1.5 3 2.3s1.6-1.2 1.6-1.2z" opacity="1" data-original="#f5760a"></path><g fill="#ff9248"><path d="M214.8 83.4s-3.2-14.7-2.5-18.5-6.5-12.6-7.8-13.4-5.9-5.4-6.9-4.7-.1 2.8 2 4.3 3.1 2.3 3.1 2.3 1.6 2.8 3.5 5.5 5.1 19 5.1 19z" fill="#ff9248" opacity="1" data-original="#ff9248"></path><path d="M209.7 52.7s-4.4-8.5-5.1-8.9-1.9.2-1.7 2c.1 1.8 1.8 3.7 1.8 3.7s.9 3.8 1.6 5.4-1 5.9-.5 7.9c.4 2-.5 4.6-.5 4.6s5-1.3 4.9-1.7c0-.5.1-11.5-.5-13z" fill="#ff9248" opacity="1" data-original="#ff9248"></path><path d="M207.1 59s-1.9-3.7-3.3-4.2-7.9-2.3-8.7-1.6-.2 2 1.1 2.4c1.4.4 5.9 1.3 5.9 1.3s2.7 4.3 3.6 4.7c1.1.5 1.4-2.6 1.4-2.6zM193.8 60.3c.2 1.2 1.4 3.7 2.5 5.8 6.8 4.6 12.5 16.7 12.5 16.7l1.2.4 4.8.2-5.2-17.4-.4-1.1-1-.6-1.1-.6-1.1-.6s0 .2-.1.4c0 .1-.1.2-.1.3-.4 1.1-1.2 3.1-2.3 3.6-1.2.5-3-3.8-4.8-6.4-.5-.8-1.1-1.4-1.6-1.7-.1-.1-.2-.1-.3-.2-2.4-1.2-3.4-.9-3 1.2z" fill="#ff9248" opacity="1" data-original="#ff9248"></path></g><path fill="#f5760a" d="M196.3 66.1c.8 1.6 1.5 2.9 1.5 3.1 0 .3 2.1 4.4 3.6 6.1 1.6 1.7 3.6 4.7 4.3 6.4.6 1.4 1 2 1 2l2-.8c.1-.1-5.6-12.2-12.4-16.8z" opacity="1" data-original="#f5760a"></path><path fill="#ffcf20" d="M213.2 123.1c-4.1 5.1-8.2 12.4-7.1 16.4 9.2 2.2 14-3.9 14-3.9-1.3-8.1-1.6-14.7-1.6-14.7z" opacity="1" data-original="#ffcf20"></path><path fill="#df9446" d="M206.1 139.6c1.3 5.1 2.9 8.8 2.9 8.8 4.2 3.4 13.7-.5 13.7-.5-1.1-4-2-8.2-2.6-12.1s-4.8 5.9-14 3.8z" opacity="1" data-original="#df9446"></path><path fill="#f5760a" d="M206.8 82.8 195.5 140c.3.2.7.3 1 .5l1.8-4.1L209 82.8z" opacity="1" data-original="#f5760a"></path><path fill="#ffe6d2" d="M244.3 227.2s12.4 7.7 32.9 11.8c8.4 1.7 18.8 1.8 31.8-1 0 0 44.3-56.6 21-117.7l-4.4-2.2-31.1-16-20 3s-12.3 11.1-19.3 12.5c0 0-8 12.4 8.6 39.9 16.7 27.4-19.5 69.7-19.5 69.7z" opacity="1" data-original="#ffe6d2"></path><path fill="#f6d69b" d="M278.3 218.7c-1.3 8.9-1.5 15.5-1.1 20.3 8.4 1.7 18.8 1.8 31.8-1 0 0 44.3-56.6 21-117.7l-4.4-2.2c2.3 12.4 4 32-5.1 43.8-14.1 18.3-38.3 30.2-42.2 56.8z" opacity="1" data-original="#f6d69b"></path><path fill="#cd9f50" d="m258.4 149.2 3.4 21.9 8.7 2.6 9.3-4.4-2-21zm1.5 6.4 3.9 4.9 8.3-.3 5.9-4.2 1.2 12.9-8.8 4.2-8.2-2.5zm-.1-1.1-.7-4.7 11.9-.6 6.5-.3.6 6.5-6 4.2-8 .3z" opacity="1" data-original="#cd9f50"></path><path fill="#fff1d7" d="m259 149.8.7 4.7 4.3 5.4 8-.3-1.1-10.4zm8.8 5.7h.5c.1 0 .3-.1.4-.1.9 0 1.7.8 1.7 1.8s-.7 1.9-1.6 1.9h-.4c-.1.1-.3.1-.4.1-.9 0-1.7-.8-1.7-1.8-.2-1 .6-1.9 1.5-1.9z" opacity="1" data-original="#fff1d7"></path><path fill="#fff1d7" d="m259.9 155.6 2.4 15 8.2 2.5c.2-.2 3-3.2 3.7-5.2s-2-7.7-2-7.7l-8.3.3z" opacity="1" data-original="#fff1d7"></path><path fill="#f6d69b" d="m271 149.2 1.1 10.4 6-4.2-.7-6.5zM267.1 157.4c0 .8.6 1.5 1.3 1.7.1 0 .3.1.4 0 .9 0 1.6-.9 1.6-1.9s-.8-1.8-1.7-1.8c-.2 0-.3 0-.4.1-.8.3-1.3 1-1.2 1.9z" opacity="1" data-original="#f6d69b"></path><path fill="#b53f00" d="M266.2 157.4c0 1 .8 1.8 1.7 1.8.1 0 .3 0 .4-.1.7-.2 1.2-1 1.2-1.8 0-.9-.6-1.5-1.3-1.7-.1 0-.3-.1-.5 0-.8-.1-1.6.8-1.5 1.8z" opacity="1" data-original="#b53f00"></path><path fill="#f6d69b" d="m270.5 173.1 8.8-4.2-1.2-12.9-5.9 4.2s2.8 5.7 2 7.7c-.7 1.9-3.5 5-3.7 5.2z" opacity="1" data-original="#f6d69b"></path><path fill="#cd9f50" d="m298.2 149-2 22.1 8.7 4.9 11.2-1.7 3.3-20.9zm20.5 4.9-1 6.4-7.5 2.4-8.7-1.9-3.2-6.4.4-4.7zm-20.5 1.6 2.9 5.8 9.1 2 7.4-2.4-2 12.8-10.6 1.6-8.2-4.7z" opacity="1" data-original="#cd9f50"></path><path fill="#f6d69b" d="m311.7 152.4-1.5 10.3 7.5-2.4 1-6.4zM305.4 159.2c-.2 1 .4 2 1.4 2.2s2-.4 2.2-1.4-.4-2-1.4-2.2-2 .4-2.2 1.4z" opacity="1" data-original="#f6d69b"></path><path fill="#b53f00" d="M304.4 159c-.2 1 .4 2 1.4 2.2s2-.4 2.2-1.4-.4-2-1.4-2.2-2 .4-2.2 1.4z" opacity="1" data-original="#b53f00"></path><path fill="#f6d69b" d="M310.2 163.3s1.5 6.3.2 8-5.3 4-5.3 4l10.6-1.6 2-12.8zM290.2 134.8c-.2 1.1.5 2 1.6 2.2s2-.5 2.2-1.6-.5-2-1.6-2.2-2.1.5-2.2 1.6z" opacity="1" data-original="#f6d69b"></path><path fill="#b53f00" d="M289 134.4c-.2 1.1.5 2 1.6 2.2s2-.5 2.2-1.6-.5-2-1.6-2.2c-1-.2-2 .5-2.2 1.6z" opacity="1" data-original="#b53f00"></path><path fill="#f6d69b" d="M290.1 153.1c-.2 1.1.5 2 1.6 2.2s2-.5 2.2-1.6-.5-2-1.6-2.2-2 .5-2.2 1.6z" opacity="1" data-original="#f6d69b"></path><path fill="#b53f00" d="M289 152.7c-.2 1.1.5 2 1.6 2.2s2-.5 2.2-1.6-.5-2-1.6-2.2-2 .5-2.2 1.6z" opacity="1" data-original="#b53f00"></path><path fill="#f6d69b" d="M287.8 171.2c-.2 1.1.5 2 1.6 2.2s2-.5 2.2-1.6-.5-2-1.6-2.2-2 .6-2.2 1.6z" opacity="1" data-original="#f6d69b"></path><path fill="#b53f00" d="M286.7 170.8c-.2 1.1.5 2 1.6 2.2s2-.5 2.2-1.6-.5-2-1.6-2.2c-1.1-.1-2.1.6-2.2 1.6z" opacity="1" data-original="#b53f00"></path><path fill="#f6d69b" d="M283 189c-.2 1.1.5 2 1.6 2.2s2-.5 2.2-1.6-.5-2-1.6-2.2-2.1.5-2.2 1.6z" opacity="1" data-original="#f6d69b"></path><path fill="#b53f00" d="M281.8 188.6c-.2 1.1.5 2 1.6 2.2s2-.5 2.2-1.6-.5-2-1.6-2.2c-1-.2-2 .5-2.2 1.6z" opacity="1" data-original="#b53f00"></path><path fill="#f6d69b" d="M277.5 206.6c-.2 1.1.5 2 1.6 2.2s2-.5 2.2-1.6-.5-2-1.6-2.2c-1-.2-2 .5-2.2 1.6z" opacity="1" data-original="#f6d69b"></path><path fill="#b53f00" d="M276.4 206.2c-.2 1.1.5 2.1 1.6 2.2 1.1.2 2-.5 2.2-1.6s-.5-2-1.6-2.2c-1-.2-2 .5-2.2 1.6z" opacity="1" data-original="#b53f00"></path><path fill="#f6d69b" d="M270.9 223.2c-.2 1.1.5 2 1.6 2.2s2-.5 2.2-1.6-.5-2-1.6-2.2c-1-.2-2 .5-2.2 1.6z" opacity="1" data-original="#f6d69b"></path><path fill="#b53f00" d="M269.8 222.8c-.2 1.1.5 2 1.6 2.2s2-.5 2.2-1.6-.5-2-1.6-2.2c-1-.2-2 .5-2.2 1.6z" opacity="1" data-original="#b53f00"></path><path fill="#f6d69b" d="M261 232.8c.8.5 1.7 1 2.6 1.5 16.4-33.5 21.9-60.3 23.5-76.8 1.7-17.9-.4-29.4-.5-29.8l-3.4.3.4 1.9c.1.3 2.9 13.9-1 37.8-2.7 16.9-8.8 39-21.6 65.1z" opacity="1" data-original="#f6d69b"></path><path fill="#f6d69b" d="m262.1 128.3 16.8-5 11.1-.3 21.6 6.2V111c-5-2.9-11.6-7.4-14.6-9.8l-22.1 5.5s-2.8 2.2-6.9 5.2z" opacity="1" data-original="#f6d69b"></path><path fill="#f5760a" d="m271.7 89.6 2.1 22.8c12.8-12.5 22.7-10.7 23.1-10.6l-3-17.3z" opacity="1" data-original="#f5760a"></path><path fill="#ff9248" d="m273.8 112.4.3 3c2.5 4 6.3 8.8 6.3 8.8.1 0 4.7 5.6 4.8 5.5 12.6-22.6 13.2-19.1 13.2-19.1l-1.5-8.8c-.3-.1-9-1.7-20.7 8.4-.8.7-1.6 1.4-2.4 2.2z" opacity="1" data-original="#ff9248"></path><path fill="#ffe492" d="m261.1 124.4 14.2-6.4s5.1 8.5 9.9 11.7c-.5-.5-6.1-5.7-9.6-14.3-1.6-4-2.8-8.7-2.8-14l-6.2 7.6z" opacity="1" data-original="#ffe492"></path><path fill="#ffcf20" d="M309.5 125.2 293.4 113s3.9-8.3 2.4-17.1l10.5 10z" opacity="1" data-original="#ffcf20"></path><path fill="#a98825" d="m285.2 129.7 8.3-16.8 16.1 12.2-15.8-9.3c-1 4-8.6 13.9-8.6 13.9z" opacity="1" data-original="#a98825"></path><path fill="#ffcf20" d="m261.1 124.4 15-9.3c-1.6-4-2.9-8.6-3.3-13.6l-6.2 7.6z" opacity="1" data-original="#ffcf20"></path><path fill="#a98825" d="m261.1 124.4 14.2-6.4s5.1 8.5 9.9 11.7c-.5-.5-5.5-6-9-14.6l-.6.3z" opacity="1" data-original="#a98825"></path><g fill="#ecbe36"><path d="M285.2 129.7c.1-.1.7-1 1.7-2.2 2.3-3.2 6.3-8.8 6.9-11.6l15.8 9.3-16.2-12.2-6.5 13.2zM261.1 124.4l14.2-6.4s4.1 6.8 8.4 10.6c.5.4.9.8 1.4 1.1-.1-.2-.7-.7-1.4-1.6-1.9-2.3-5.1-6.9-7.6-13l-.6.3z" fill="#ecbe36" opacity="1" data-original="#ecbe36"></path></g><path fill="#070001" d="m241.4 55.2 17.6 2.1-.2 1.7-17.9-1.5z" opacity="1" data-original="#070001"></path><path fill="#ff9248" d="M309.6 51.7s-8.8 38.6-11.7 41c-2.9 2.5-24.3 12.6-30.1 11.6s-14.8-11-16-13.8-3.8-22.2-1.7-25.6c2.1-3.3.3-14.6 1.2-20.2.8-5.7 1.6-9.5 6.3-15s17.5-11.7 33.7-6.6c17.4 5.5 18.3 28.6 18.3 28.6z" opacity="1" data-original="#ff9248"></path><path fill="#20091c" d="M242.4 30c12.4 20.8 50 10.1 50 10.1-.3 9.8 6.6 14.9 6.6 14.9l-1.3 10.6 6.5 3.8s2.7-5.5 6.1-14.3c1.4-3.7 2.9-7.9 4.4-12.5 4.3-13.5-5.1-13.1-8-12.7 1.4-3.8 1.1-7.3-4.8-7.1-10.4.3-21.7-3.6-27-5.6-.4.1-26.8 11.5-32.5 12.8z" opacity="1" data-original="#20091c"></path><path fill="#4e4652" d="M242.4 30c12.4 20.8 50 10.1 50 10.1-.3 9.8 6.6 14.9 6.6 14.9l-2.4 10.4 7.7 3.9s2.7-5.5 6.1-14.3c-13.4-10-12.8-24.2-12.8-24.2-15.4 8-41.8-3.1-42.3-3.3 5.8 6.3 14.7 9.1 14.7 9.1-12.2 3.6-27.2-6.4-27.6-6.6z" opacity="1" data-original="#4e4652"></path><path fill="#ff801c" d="M264.8 71.5s2.8 1.3.8 2.4-8.2.3-8.9-1.1h-.6l-.2 1.3.9 1.2 2.3 1.1h2.3l2.7-.2 2.7.8 1.7-.3.4-1.6-.7-2-1.9-1.4z" opacity="1" data-original="#ff801c"></path><path fill="#d36301" d="M264.8 71.2s5.5 1.2 4.4 4.7c-1.1 3.6-4.4-.2-7.5.7s-7.5-1.7-6.3-3.5c1.1-1.8 7.1-5.8 8.2-17.1l.5.4s-.1 5.2-2.1 9.1-5.5 7.2-5.7 7.8.7 2.3 3.5 2.8c2.8.4 3.7-1.1 6 .3s3-1 2.8-2-1.8-2.6-3.8-3z" opacity="1" data-original="#d36301"></path><path fill="#bbbcbc43" d="M257.3 73.6c-.1.6.8 1.1 2 1.3 1.2.1 2.1-.2 2.2-.8s-.8-1.1-2-1.3c-1.1-.1-2.1.2-2.2.8z" opacity="1" data-original="#bbbcbc43"></path><path fill="#070001" d="m286.3 60.5 17.5 2.2-.2 1.6-17.4-1.4z" opacity="1" data-original="#070001"></path><path fill="#950000" d="M277.2 83.5s-1.4 6.3-8 8.5c-8 2.6-11-4.3-11.5-9.1 0 0 12.4 3.7 19.5.6z" opacity="1" data-original="#950000"></path><path fill="#ffffff" d="M276 84.3s-1.5 2.5-4.1 3c-2.6.4-10.2.4-12.8-.9 0 0-.6-2.8-.6-2.9.1-.3 11.6 1.9 17.5.8z" opacity="1" data-original="#ffffff"></path><g fill="#942700"><path d="M278.7 82.7s.8.2 1.3.6.5-.7-.4-1.1c-1-.4-2.1-.2-2.1 0-.1.4 1.2.5 1.2.5z" fill="#942700" opacity="1" data-original="#942700"></path><path d="m257.6 82.6.1.8c3.4.9 12.8 1.6 14.7 1.4 3-.3 6.6-1.3 7-1.8s-.8-.4-.8-.4-4.3 1.4-6.5 1.5c-1.9.1-11.4-.6-14.5-1.5z" fill="#942700" opacity="1" data-original="#942700"></path></g><path fill="#950000" d="M274 59.7v2.7s7.2-1.6 10.6 2.3c.1 0-1.7-4.8-10.6-5zM262.2 61.1s-3.8-2.2-7.5-.2l.3-1.7c0 .1 4.2-2.6 7.2 1.9z" opacity="1" data-original="#950000"></path><path fill="#3c1735" d="m286.5 53.2-.6 2.3s-10.8-1.1-14.3-6.5l1.8-2.9s2.5 6 13.1 7.1zM262.4 47.7l.9 3s-1.6 2.1-8.3 2.3l.3-2s4.6 0 7.1-3.3z" opacity="1" data-original="#3c1735"></path><path fill="#0ff" d="M266 66c.4 1.3 1.1 2.7 1.1 2.7s9.3 1.9 13 1c.1 0 5-5.2 3.3-8.2s-16.1-2.2-16.5-1.7c-.4.4-.6.2-.8 1.5s-.5 3.4-.1 4.7z" opacity=".4"></path><path fill="#070001" d="M264.7 65.4c.3 1.3.8 3.5 1.4 4.1s9.4 1.8 13.9 1.7c0 0 4-3.2 4.7-7.6l1.5-.7v-2.3s-2.4-.3-3.6-.7-3.3-1.4-7.3-1.5c-4.1-.1-9.9.4-9.9.4s-1 5.2-.7 6.6zm1.3-4.1c.2-1.3.4-1.1.8-1.5s14.9-1.3 16.5 1.7c1.7 3-3.2 8.2-3.3 8.2-3.7.8-13-1-13-1s-.7-1.4-1.1-2.7c-.3-1.3 0-3.4.1-4.7z"></path><path fill="#0ff" d="M259.9 65.3c-.7 1.2-1.7 2.4-1.7 2.4s-9.5-.4-12.9-2.1c-.1-.1-3.7-6.2-1.3-8.7 2.3-2.5 16.2 1.7 16.5 2.2s.6.4.4 1.7c-.2 1.2-.3 3.3-1 4.5z" opacity=".4"></path><g fill="#070001"><path d="M262 58.3s-5.5-1.9-9.5-2.7-6.3-.4-7.5-.3-3.6-.2-3.6-.2l-.5 2.3 1.3 1c-.4 4.4 2.8 8.5 2.8 8.5 4.4 1.2 13.2 2.1 13.9 1.7s1.7-2.4 2.3-3.6c.7-1.3.8-6.7.8-6.7zm-2.1 7c-.7 1.2-1.7 2.4-1.7 2.4s-9.5-.4-12.9-2.1c-.1-.1-3.7-6.2-1.3-8.7 2.3-2.5 16.2 1.7 16.5 2.2s.6.4.4 1.7c-.2 1.2-.3 3.3-1 4.5z"></path><path d="m265.855 60.17-4.17-.496.153-1.29 4.17.495z"></path></g><path fill="#ff9248" d="M299.9 68.4s1.1-8.5 7.9-8.9c6.7-.4 8.7 12.4 3.7 17.2s-9.7 2.4-9.7 2.4-4.7-2.5-1.9-10.7z"></path><path fill="#d36301" d="M306.5 73.9c-.6-2.2-3.4-6-3.1-7.9.3-1.8 2.7-4.7 6.7-3.5 0 0-6.7-.3-5.4 4.8 2.7-2.2 4.9-.4 4.9-.4-2.5-.2-3.9.5-4.7 1.1 1.5 4.8 3.1 6 1.7 7.4s-2.6.8-2.6.8 3.1-.1 2.5-2.3z"></path><path fill="#ff9248" d="m353 216-67.7 4.6-2.5-6.8 63.1-11.8s8.3 6.3 7.1 14z"></path><path fill="#ff9248" d="M359.4 195.7s5 13.8 3.8 16.5S353 216 353 216l-9.3-17.2z"></path><path fill="#ffe6d2" d="M318.7 137.6c.5 1.5.9 2.9 1.3 4.2s5.4 14.1 12 18.6c6.6 4.6 3.7 12.6 6.3 15.6 2.2 2.6 13.2 5.7 19.6 4.3-.2-1.1-.3-2.3-.5-3.5-.5-3.2-1-6.1-1.2-6.7-.5-1.4-6.4-11.3-8.9-15.9s-3.6-15.6-8.4-23.3c0 0-8.9-14.6-15.2-12.3-.4.2-.7.3-1 .5-.3.2-.6.5-.7.8-.5.6-1.1 1.3-1.4 1.6-3.2 3.3-4.3 8.8-1.9 16.1z"></path><path fill="#f6d69b" d="M320 141.8c2.1 7.8 2 12.4 6.2 17.9 4.9 6.4 3.7 17.4 8.3 23.9.7 1 1.8 1.7 3.1 2.3 7.1 3 21.1-.2 21.1-.2s-.3-2.4-.7-5.2c-6.4 1.5-17.3-1.7-19.6-4.3-2.6-3 .3-11-6.3-15.6-6.7-4.8-12.1-18.8-12.1-18.8z"></path><path fill="#ffcf20" d="M344.4 202.7c5.1-1.4 15.4-4.6 18-8l-2-13.1s-9.8.3-18.7 1.8c-.1.1 5.3 10.8 2.7 19.3z"></path><path fill="#df9446" d="M332.8 185.5s7.4 12.4 8.8 17.9c0 0 1.1-.3 2.8-.8 2.6-8.5-2.7-19.3-2.7-19.3-3.3.7-6.4 1.4-8.9 2.2z"></path><path d="M248.9 229.1c2 .7 4.5 1.3 7.5 1.7h.3c.6.1 1.2.1 1.8.2H261.6c.6 0 1.3 0 1.9-.1.2 0 .4 0 .7-.1.5 0 1-.1 1.5-.2.2 0 .3 0 .5-.1h.3c.3-.1.7-.1 1.1-.2.2 0 .5-.1.7-.1 1-.2 2-.5 3-.7.1 0 .3-.1.4-.1.4-.1.8-.3 1.2-.4.2-.1.4-.1.5-.2.4-.1.8-.3 1.2-.5.2-.1.4-.1.6-.2.4-.2.8-.4 1.3-.5.2-.1.3-.1.5-.2.5-.2 1-.5 1.4-.7.1-.1.2-.1.3-.2 1.2-.6 2.4-1.3 3.6-2.1.5-.3.8-.8.8-1.3v-.5c0-.1 0-.2-.1-.3v-.1c0-.1-.1-.2-.2-.3l-.3-.3c-.5-.4-1.2-.9-2.1-1.4-.1 0-.1-.1-.2-.1-.2-.1-.3-.2-.5-.3-.1-.1-.3-.2-.4-.2s-.2-.1-.3-.1l-.6-.3s-.1 0-.1-.1c-.2-.1-.5-.2-.8-.3h-.1c-.3-.1-.5-.2-.8-.3h-.1c-.3-.1-.5-.2-.8-.3-.1 0-.1 0-.2-.1-.2-.1-.4-.1-.7-.2-.1 0-.3-.1-.4-.1-.2 0-.3-.1-.5-.1-.2-.1-.4-.1-.7-.2h-.1c-1.5-.4-3.1-.6-5-.8-.9-.1-1.9-.1-2.7-.1h-1.9c-.3 0-.7.1-1 .1h-.1c-3 .4-5.6 1.3-7.9 2.3-.3.1-.6.3-.9.4-.1.1-.2.1-.3.2-.2.1-.4.2-.5.3-.3.2-.5.3-.8.5-.6.4-1.1.7-1.6 1.1-3.9 2.8-5.8 5.8-5.8 5.9s1.1.6 3 1.3h.1c.7.2.9.3 1.2.4z"></path><path fill="#ff9248" d="M288.9 216.3c-.4.5-2.5 4.2-4.2 4.4-1.7.1-14.3.7-15.5 2.1-1.3 1.5-4.8 4.3-5 4.8s-3 4.9-4.8 5c-1.8.2 1.4-7.4 1.4-7.4l6-5.5s-6.9 2.9-7.6 3.8-5.1 7.5-7.2 6.8c-2.1-.6 3.8-9.4 3.8-9.4l6.9-3.6-8.2 4.4s-4.1 6.2-6.9 6.6 3.3-8.1 4.3-9c1.1-.9 7.9-5.1 7.9-5.1l-10.1 8.7s-3.2 5.6-5.2 3.7c-.9-.8 5-9.3 5-9.3s8.8-6.1 9-6.4c1.7-2.3 25.7 1.8 27.8 2.4 2.1.5 3.1 2.2 2.6 3z"></path><path fill="#c7bccb" d="m175.7 238.8 66.8-2.2c2-.1 3.6-1.9 3.5-4.1l-9.9-62.8c-.1-2.2-1.8-4-3.8-3.9l-66.8 2.2c-2 .1-3.6 1.9-3.5 4.1l9.9 62.8c.1 2.2 1.8 3.9 3.8 3.9z"></path><path fill="#e9e0e5" d="m172 238.9 66.8-2.2c2-.1 3.6-1.9 3.5-4.1l-9.9-62.8c-.1-2.2-1.8-4-3.8-3.9l-66.8 2.2c-2 .1-3.6 1.9-3.5 4.1l9.9 62.8c.1 2.2 1.8 3.9 3.8 3.9z"></path><path fill="#c7bccb" d="m290.9 235-48.5 1.6 3.2-6.3 45.1-1.5c1.3 0 2.4 1.1 2.4 2.5v1.1c.1 1.4-.9 2.5-2.2 2.6z"></path><path fill="#fff" d="M235.9 202.4v.2l-40.3-34.4 9.6-.3 28.9 22.8z" opacity=".45"></path><path fill="#c7bccb" d="M196.6 201.2c-2.9 1.4-3.9 5.5-2.2 9.1 1.6 3.7 5.3 5.5 8.2 4.1s3.9-5.5 2.2-9.1-5.3-5.4-8.2-4.1z"></path><path fill="#fff" d="m171.8 169.6 14.3-.2 50.2 43.9 2.2 13.7z" opacity=".45"></path></g></svg>