<svg xmlns="http://www.w3.org/2000/svg" version="1.1" xmlns:xlink="http://www.w3.org/1999/xlink"
    width="512" height="512" x="0" y="0" viewBox="0 0 100 100"
    style="enable-background:new 0 0 512 512" xml:space="preserve" class=""><g><path fill="#ec3e00" d="M63.019 32.99s.577-5.734 1.19-7.934c.364-1.308 1.262-1.38 1.189.388-.072 1.767-.157 8.042-.446 8.547-.288.505-1.825-.713-1.933-1.001z" opacity="1" data-original="#ec3e00"></path><path fill="#3b4044" d="m59.032 17.609.344-.391 2.804.923 1.846 6.129-.381.393-3.435-.387z" opacity="1" data-original="#3b4044"></path><path d="m59.376 17.218 3.148.532 1.465 6.521-3.434-.386z" fill="#000000" opacity="1" data-original="#000000"></path><path fill="#3b4044" d="M60.571 18.319c.015.157-.078.296-.209.309s-.25-.104-.265-.262c-.016-.157.077-.296.208-.309.132-.012.251.105.266.262z" opacity="1" data-original="#3b4044"></path><path d="M60.49 18.327c.011.104-.051.195-.138.204-.086.009-.165-.068-.175-.173-.011-.104.052-.195.138-.204.087-.008.165.07.175.173z" fill="#000000" opacity="1" data-original="#000000"></path><g fill="#ec3e00"><path d="M64.804 25.408c-.055.003-.614.251-1.032-.176s-1.246-1.143-1.232-1.897c.014-.756.92-2.554 1.077-2.484.157.068.851.608.874 1.339.024.731.868 2.204.83 2.536-.04.333-.341.671-.517.682z" fill="#ec3e00" opacity="1" data-original="#ec3e00"></path><path d="M62.813 22.86s-.912-.622-1.285-.733c-.372-.111-1.093-.141-1.033.161.061.302.932.34 1.216.533s.726.735.874.878c.148.142.356-.743.228-.839zM62.868 22.611s-1.154-1.002-1.344-1.063c-.188-.062-1.954-.311-1.852-.657.101-.348 1.249-.35 1.888.025.64.374 1.856.88 1.822 1.175-.034.296-.514.52-.514.52z" fill="#ec3e00" opacity="1" data-original="#ec3e00"></path><path d="M63.233 22.103s-1.608-1.259-1.715-1.309c-.106-.049-1.858-.332-1.783-.737.074-.405 1.681-.014 1.948.222.268.235 1.929 1.071 1.985 1.305.058.231-.435.519-.435.519z" fill="#ec3e00" opacity="1" data-original="#ec3e00"></path><path d="M63.413 21.496s-.822-1.146-1.018-1.394c-.196-.247-1.964-.901-1.554-1.325.409-.424 2.061.871 2.281 1.233.221.362.963 1.335.963 1.335zM54.931 34.903s6.382-1.505 8.108-2.476c1.727-.97 2.688 1.137 1.488 2.108-1.198.971-7.25 2.931-8.774 2.639-1.524-.291-2.76-1.609-.822-2.271z" fill="#ec3e00" opacity="1" data-original="#ec3e00"></path></g><path fill="#679c00" d="M57.403 37.676c-3.49.535-6.003-1.376-6.246-2.05-.209-.576 3.278-1.63 4.855-2.051.719.512 1.84 1.671 1.391 4.101z" opacity="1" data-original="#679c00" class=""></path><path fill="#ffbe00" d="M58.434 37.451c-.352.1-.695.173-1.03.225.448-2.43-.672-3.589-1.391-4.101.438-.117.729-.184.751-.18 2.211.465 1.67 4.056 1.67 4.056z" opacity="1" data-original="#ffbe00"></path><path fill="#ec3e00" d="M51.942 33.999s-1.809 1.595-3.588.041c0 0 .324-.179.575-1.599.567-.116 1.466-.163 2.592.241.059.553.184 1.047.421 1.317z" opacity="1" data-original="#ec3e00"></path><path fill="#961a00" d="M51.521 32.683c-1.126-.404-2.024-.357-2.592-.241.113-.646.211-1.55.256-2.81l2.396.297c0-.001-.192 1.523-.06 2.754z" opacity="1" data-original="#961a00"></path><path fill="#679c00" d="M55.112 40.772c-.175 1.068-.411.709-1.146 2.625-.733 1.915-.419 3.831-.419 3.831-2.31.811-6.543.037-6.543.037.351-2.247-.489-3.463-1.818-5.452s-.909-4.199-.74-5.987c.146-1.537 2.312-2.003 3.377-2.138l.11-.014.089-.01.04-.004.022-.002.104-.011c.138-.011.217-.014.217-.014a11.23 11.23 0 0 1 1.686-.076l.041.001c.116.004.229.01.342.017l.192.016.169.017.165.018.126.017.097.013.096.016.153.025.148.026h.001l.232.049.074.017.112.026.259.067a7.13 7.13 0 0 1 1.383.535.961.961 0 0 1 .481.854l.189 3.224c.001.002.936 1.208.761 2.277z" opacity="1" data-original="#679c00" class=""></path><path fill="#679c00" d="M52.298 33.884c-.086 1.67-.917 3.122-.917 3.122-1.676-1.09-2.987-2.604-3.559-3.317l.11-.014.089-.01.04-.004.022-.002.104-.011c.138-.011.217-.014.217-.014a11.23 11.23 0 0 1 1.686-.076l.041.001c.116.004.229.01.342.017l.192.016.169.017.165.018.126.017.097.013.096.016.153.025.148.026h.001l.232.049.074.017.112.026z" opacity="1" data-original="#679c00" class=""></path><path fill="#679c00" d="M55.112 40.772c-.175 1.068-.411.709-1.146 2.625-.733 1.915-.419 3.831-.419 3.831-2.31.811-6.543.037-6.543.037.351-2.247-.489-3.463-1.818-5.452s-.909-4.199-.74-5.987c.108-1.146 1.339-1.695 2.399-1.957.305.414 1.878 2.462 4.054 3.877l.784.511.465-.812c.042-.073.856-1.516 1.014-3.265.211.085.384.169.52.239a.961.961 0 0 1 .481.854l.189 3.224s.935 1.206.76 2.275z" opacity="1" data-original="#679c00" class=""></path><path fill="#4e8000" d="M54.421 42.349a11.35 11.35 0 0 0-.455 1.049 6.16 6.16 0 0 0-.157.463c-1.586.085-4.319.45-5.1 1.932-.252.479-.515.969-.783 1.468l-.922.006c.351-2.247-.489-3.463-1.818-5.452a5.974 5.974 0 0 1-.201-.326c1.294.347 4.831 1.189 6.286.473 1.796-.884 1.906.359 3.122.387z" opacity="1" data-original="#4e8000" class=""></path><path fill="#ffbe00" d="M53.161 34.18c-.157 1.749-.972 3.191-1.014 3.265l-.465.812-.784-.511c-2.176-1.415-3.749-3.463-4.054-3.877.362-.09.705-.146.978-.181.571.714 1.883 2.228 3.559 3.317 0 0 .831-1.452.917-3.122.335.095.624.197.863.297z" opacity="1" data-original="#ffbe00"></path><path fill="#ec3e00" d="M52.298 33.884c-.086 1.67-.917 3.122-.917 3.122-1.676-1.09-2.987-2.604-3.559-3.317l.11-.014.089-.01.04-.004.022-.002.104-.011c.138-.011.217-.014.217-.014a11.23 11.23 0 0 1 1.686-.076l.041.001c.116.004.229.01.342.017l.192.016.169.017.165.018.126.017.097.013.096.016.153.025.148.026h.001l.232.049.074.017.112.026z" opacity="1" data-original="#ec3e00"></path><path fill="#bf3100" d="M35.864 55.599s-.961.75-1.043.913c-.081.163.636 2.167 1.076 2.232.439.066-.343-1.776-.343-1.776l.655-.973z" opacity="1" data-original="#bf3100"></path><path fill="#bf3100" d="M35.719 55.513s-.832.592-.718.934c.114.343.961 1.843 1.173 1.76.334-.13-.812-2.058-.812-2.058l.6-.333z" opacity="1" data-original="#bf3100"></path><path fill="#bf3100" d="M35.976 56.554s.974 1.006.643 1.121c-.33.115-.792-.726-.792-.726z" opacity="1" data-original="#bf3100"></path><path fill="#ec3e00" d="M42.753 38.73s-.825 6.067-1.022 7.155c-.198 1.088 1.154.824 1.583.231.429-.594 1.945-5.837 1.945-6.365 0-.526-1.055-2.274-2.506-1.021z" opacity="1" data-original="#ec3e00"></path><path fill="#ec3e00" d="M42.074 45.803s-1.762 1.336-2.619 4.732c-.857 3.397-1.188 4.155-.857 4.551.33.396.504.478.867.049.362-.429 3.749-8.227 3.849-9.018.098-.792-1.24-.314-1.24-.314z" opacity="1" data-original="#ec3e00"></path><path fill="#ec3e00" d="M39.348 54.657c.022.071.321 1.509-.024 2.177-.347.668-.692.874-1.286.841-.594-.032-1.6.264-1.798 0-.197-.264.677-.939 1.237-.874.561.066.511-.181.462-.214-.05-.033-.989-.182-1.451.149-.462.33-1.171.61-1.253.659-.083.05.429 1.863 0 1.665-.429-.197-.759-2.061-.594-2.11s1.177-.765 1.177-.765-.204-.472-.122-.653c.083-.181 2.523-.824 2.886-1.038.362-.216.691-.067.766.163z" opacity="1" data-original="#ec3e00"></path><path fill="#679c00" d="M45.733 39.158c-1.734-.236-2.917-.878-3.54-1.306.931-1.354 2.825-3.833 3.808-3.179.921.614.243 3.038-.268 4.485z" opacity="1" data-original="#679c00" class=""></path><path fill="#ffbe00" d="M45.733 39.158c-.229.652-.425 1.105-.425 1.105s-2.968-.248-3.661-1.583c0 0 .211-.342.546-.828.623.428 1.806 1.07 3.54 1.306z" opacity="1" data-original="#ffbe00"></path><path fill="#5f0331" d="M42.629 22.773c.691-1.533.942-3.2-.361-4.267-2.091-1.71-1.853-3.895-1.533-5.03.409-.341.98-.613 1.769-.751.806-.141 1.462-.03 1.997.216 1.456-1.016 3.829-1.727 5.38 2.655z" opacity="1" data-original="#5f0331"></path><path fill="#21000e" d="M42.629 22.773 40.45 24.93s-2.929.11-2.802-1.899c.014-.229.062-.42.134-.579-.355-.626-.662-1.577-.074-2.532-.351-1.124-.694-3.346 1.617-4.306.152-.063.295-.116.431-.159.048-.627.279-1.4.979-1.979-.319 1.135-.558 3.32 1.533 5.03 1.303 1.067 1.052 2.734.361 4.267z" opacity="1" data-original="#21000e"></path><path fill="#bf3100" d="M53.63 32.135c-.153.086-.3.141-.438.161-1.287.191-5.385-1.402-6.993-2.794a4.04 4.04 0 0 1-.436-.441.973.973 0 0 0 .284-.441c.056-.208-.053-.717-.192-1.201.34.708.793 1.425 1.377 1.93 1.41 1.219 4.732 2.594 6.398 2.786z" opacity="1" data-original="#bf3100"></path><path fill="#ec3e00" d="M53.63 32.135c-1.666-.191-4.988-1.566-6.398-2.786-.584-.505-1.037-1.222-1.377-1.93.14.484.248.993.192 1.201a.976.976 0 0 1-.284.441c-.401-.468-.727-1.027-.983-1.576l-.076-.167c-.124-.278-.231-.55-.32-.803l-.082-.238c-.12-.356-.204-.66-.257-.868-.048-.186-.07-.295-.07-.295-2.219-5.505 4.476-8.187 6.348-8.292l.17-.002c1.834.065 3.938 2.778 4.16 3.163.23.394.421 1.48 1.229 5.192.722 3.319-.967 6.239-2.252 6.96z" opacity="1" data-original="#ec3e00"></path><path fill="#2f0415" d="m46.981 23.388.02.354.2.036c.117-.092.162-.784 1.418-1.358 1.244-.57 2.425-.096 2.728-.231.303-.137.16-.327.105-.513-.055-.185-.845-.141-1.319-.085-.474.057-1.781.417-2.041.578-.298.184-.861.902-1.111 1.219z" opacity="1" data-original="#2f0415"></path><path fill="#bf3200" d="M48.221 24.474s.662-.755 1.695-.836c.956-.076 1.447 1.115 1.447 1.115s-.354-1.791-1.644-1.665c-1.374.134-1.498 1.386-1.498 1.386z" opacity="1" data-original="#bf3200"></path><path fill="#ffffff" d="M48.221 24.474s.762-1.328 1.834-1.04c1.071.288 1.309 1.319 1.309 1.319s-.499 1.005-1.699.898c-1.019-.091-1.444-1.177-1.444-1.177z" opacity="1" data-original="#ffffff" class=""></path><path fill="#913f39" d="M50.831 24.371c.079.586-.269 1.116-.776 1.185-.508.068-.983-.351-1.062-.938-.079-.586.269-1.116.776-1.185.507-.068.983.352 1.062.938z" opacity="1" data-original="#913f39" class=""></path><path fill="#3f0100" d="M50.35 24.435c.037.279-.128.532-.37.565s-.468-.167-.506-.446c-.037-.279.128-.531.37-.564.241-.033.468.166.506.445z" opacity="1" data-original="#3f0100"></path><path fill="#ffffff" d="M48.644 24.701a.467.467 0 1 0 .923-.145.467.467 0 0 0-.923.145zM53.367 24.053s.036-1.279.806-1.414c.771-.135.873.465.873.465s.26 1.114-.494 1.534c-.754.419-1.185-.585-1.185-.585z" opacity="1" data-original="#ffffff" class=""></path><path fill="#913f39" d="M54.983 23.534c.065.479-.167.906-.517.953-.351.047-.687-.303-.751-.782-.064-.478.167-.905.517-.952.351-.048.687.303.751.781z" opacity="1" data-original="#913f39" class=""></path><path fill="#3f0100" d="M54.651 23.579c.03.229-.079.432-.246.454-.167.023-.327-.144-.357-.373-.031-.228.079-.431.246-.453s.327.145.357.372z" opacity="1" data-original="#3f0100"></path><path fill="#ffffff" d="M53.552 23.766c.038.239.206.412.376.385.17-.026.277-.242.239-.482-.038-.239-.206-.412-.376-.386-.17.027-.276.242-.239.483z" opacity="1" data-original="#ffffff" class=""></path><path fill="#bf3200" d="M53.367 24.053s.615-1.964 1.669-1c0 0-.146-.809-.948-.58s-.721 1.58-.721 1.58zM51.363 24.753s-.492-1.191-1.447-1.116c-1.034.082-1.695.837-1.695.837s.025-.252.177-.542c.187-.356.565-.771 1.322-.844 1.29-.126 1.643 1.665 1.643 1.665z" opacity="1" data-original="#bf3200"></path><path fill="#2f0415" d="M51.363 24.753s-.492-1.191-1.447-1.116c-1.034.082-1.695.837-1.695.837l-.36-.59.537.048.039.003s2.151-1.687 2.926.818zM53.367 24.053s.674-1.976 1.669-1l.156-.43-.316.117s-1.22-.598-1.509 1.313z" opacity="1" data-original="#2f0415"></path><path fill="#8b011c" d="M54.375 27.966s-.095 1.479-1.385 1.712c-.852.153-1.477-.321-1.808-.875l-.086-.174-.001-.005a1.49 1.49 0 0 1-.113-.312 1.39 1.39 0 0 1-.05-.356s1.123.804 3.221.091l.072-.024z" opacity="1" data-original="#8b011c"></path><path fill="#ffffff" d="M54.153 28.046c-.036.285-.212.572-.643.767-.872.389-1.86.058-2.415-.188a1.49 1.49 0 0 1-.113-.312 1.39 1.39 0 0 1-.05-.356c.001-.002 1.124.802 3.221.089z" opacity="1" data-original="#ffffff" class=""></path><path fill="#bf3200" d="M52.571 25.999s.007.266.217.28c.209.014 1.122-.112 1.173-.273 0 0 .176.262-.041.456s-.852.258-.852.258L52 26.615l-.221-.212.194-.238z" opacity="1" data-original="#bf3200"></path><path fill="#961a00" d="M53.551 26.731c-.437.087-.961.034-1.055.024-.154-.013-.672-.07-.756-.297-.021-.059-.024-.15.084-.261.379-.381.732-.206.747-.199l-.073.145c-.011-.005-.267-.124-.559.169l-.047.09c.032.088.346.17.619.191.367.041 1.425.066 1.487-.335.07-.447-.864-2.648-1.23-3.459l.147-.066c.137.303 1.334 2.975 1.244 3.551-.04.259-.303.388-.608.447z" opacity="1" data-original="#961a00"></path><path fill="#6e043b" d="m55.199 19.474-.042-.141-.001-.001-.044-.128-.011-.029-.043-.108-.012-.028a3.228 3.228 0 0 0-.132-.273l-.006-.01-.042-.074-.011-.018-.019-.033-.013-.021-.027-.041-.021-.031-.028-.045-.013-.018-.02-.028-.091-.124-.094-.116a10.033 10.033 0 0 0-.98-1.002l-.003-.002-.165-.142-.011-.01-.163-.134-.02-.015-.162-.127-.026-.021-.119-.088-.001-.001-.044-.03-.032-.022-.116-.082-.001-.002-.004-.003-.043-.029-.037-.024-.114-.075-.012-.008-.042-.027-.041-.025-.113-.069-.006-.003-.012-.007-.04-.025-.045-.026-.114-.065-.021-.012-.039-.022-.05-.027-.113-.059-.026-.014-.038-.021-.051-.026-.116-.056-.029-.016-.038-.018-.053-.025-.119-.053-.021-.01-.011-.006-.037-.016-.055-.023-.122-.05-.037-.015-.035-.014-.056-.022-.128-.046-.072-.027-.057-.019-.174-.057-.033-.011-.057-.017-.142-.04-.041-.012-.032-.01-.055-.014-.151-.037-.041-.009-.031-.008-.053-.011-.165-.033-.037-.008-.031-.006-.048-.009-.182-.028-.033-.005-.029-.005-.042-.005-.206-.024-.023-.004-.028-.003-.032-.002-.237-.019h-.011l-.027-.002-.014-.001a7.772 7.772 0 0 0-1.619.082l-.12.021-.175.028-.149.029.009-.001-.021.003-.058.012-.048.01-.057.012c-1.072.23-2.17.641-3.181 1.257-.328 1.973.025 4.728 4.585 4.651.142-.107.28-.218.42-.329.635-.512 1.16-1.009 1.559-1.48a6.8 6.8 0 0 0 .289-.368l.016-.021.102-.149.033-.05.086-.137.034-.059.076-.137.029-.055.069-.152.019-.037.077-.21.049-.166c.091.046.181.099.267.155l.007.005c.212.139.415.306.628.478.221.178.451.364.709.537l.04.026.072.046.059.037.066.04.122.068.053.028.088.044.062.031.092.041.059.025.144.057.062.021.1.033.073.023.104.027.088.022.143.031.088.016.099.015.05.007.012.002h.001l.033.005.112.012.075.007c.011.026.544 1.243.737 1.519l.014.012.007.008.003.002h.002l.007.002.012.004.002.004.003.001.003-.001.007-.002.012-.006.005-.004.004-.004.004-.003.01-.009.057-.097.004-.008.007-.015.01-.026.011-.034.027-.101.005-.02.005-.024.001-.003.009-.043.004-.023.011-.06v-.005l.017-.136.003-.029.004-.043v-.008l.004-.092.001-.007v-.001l.001-.102.001-.023-.002-.04v-.025l-.001-.036-.003-.067-.011-.138-.011-.098-.005-.049a4.634 4.634 0 0 0-.098-.455z" opacity="1" data-original="#6e043b"></path><path fill="#3f011e" d="M47.951 21.271a20.982 20.982 0 0 1-2.648 1.708c.009.328.004.63-.012.907l-.003.077-.007.1-.009.129-.006.055-.016.161-.003.025-.021.177-.001.009-.026.182v.003l-.029.174-.002.009-.029.155-.007.031-.025.12-.016.067-.019.074-.031.121-.004.011a4.28 4.28 0 0 1-.117.372c-.211.592-.434.841-.438.843a15.358 15.358 0 0 1-1.409-.191 4.342 4.342 0 0 1-.485-.118l-.021-.007-.208-.069-.073-.028-.149-.06-.092-.043-.125-.058-.094-.05-.117-.063-.084-.049-.122-.075-.064-.044-.133-.092-.043-.032-.127-.098-.003-.001-.017-.015-.018-.014-.129-.111-.019-.017-.17-.16-.003-.003-.152-.163-.01-.01a4.447 4.447 0 0 1-.537-.751l-.007-.013-.014-.021-.078-.151-.018-.036-.077-.165-.021-.049-.009-.024-.016-.037-.038-.098-.024-.062-.008-.023-.013-.037-.029-.086-.025-.078-.007-.024-.03-.109-.025-.096-.009-.04-.017-.076-.024-.118-.016-.095-.021-.142-.008-.077-.016-.16-.003-.06-.007-.178.001-.049.003-.187.003-.046.014-.186.007-.057.022-.176.015-.082.026-.147.033-.137.021-.092c.043-.157.094-.314.154-.467.124-.314.268-.619.426-.913l.029-.054.132-.231.04-.066.132-.212.031-.047c.165-.251.342-.494.533-.727.26-.314.545-.614.852-.892l.006-.006a8.94 8.94 0 0 1 .808-.647l.036-.025.098-.07.143-.096-.074.052c.117-.08.235-.155.355-.228-.326 1.977.028 4.732 4.587 4.655z" opacity="1" data-original="#3f011e"></path><path fill="#ec3e00" d="M45.33 26.408s-1.408-1.594-2.274-.744c-.865.85-.449 2.194-.23 2.576.22.383.957 1.103 1.652 1.288.694.186 1.319-.341 1.436-.772.115-.432-.459-2.114-.584-2.348z" opacity="1" data-original="#ec3e00"></path><path fill="#c22500" d="M43.542 27.726s.013-1.336.507-1.205.769.89.769.89-.899-.102-.856.428c.042.528.29.696.29.696s-.489-.901.184-.947c.672-.046.764.163.764.163s-.587-1.319-1.157-1.44c-.572-.12-.731.835-.501 1.415z" opacity="1" data-original="#c22500"></path><path fill="#f09c43" d="m46.394 32.191-.637.952-1.364-.914.729-2.286c-.028.104-.456 1.726-.138 2.161.215.297.941.193 1.41.087z" opacity="1" data-original="#f09c43"></path><path fill="#ffd123" d="m46.669 31.78-.275.411c-.469.106-1.194.21-1.41-.087-.318-.436.109-2.057.138-2.161l.002-.006z" opacity="1" data-original="#ffd123" class=""></path><path fill="#e4824c" d="m44.947 29.027-.066.099.181.915.098.066.067-.098-.181-.916z" opacity="1" data-original="#e4824c" class=""></path><path fill="#f09c43" d="M45.233 29.042a.377.377 0 0 1-.688-.132.378.378 0 0 1 .194-.408.374.374 0 0 0-.055.279.38.38 0 0 0 .445.298z" opacity="1" data-original="#f09c43"></path><path fill="#ffd123" d="M45.288 28.764a.371.371 0 0 1-.055.278l-.103.037a.38.38 0 0 1-.445-.298.368.368 0 0 1 .055-.279l.104-.037a.379.379 0 0 1 .444.299z" opacity="1" data-original="#ffd123" class=""></path><path fill="#2f0415" d="M52.966 21.217c-.123.026-.237.177-.235.303.002.183.058.413.323.41.44-.004 1.212-.85 2.142-.399 0 0 .206-.006.088-.183-.117-.177-.699-.431-1.124-.347-.308.061-.887.148-1.194.216z" opacity="1" data-original="#2f0415"></path><path fill="#ec3e00" d="M54.989 70.023c-.695 5.717-1.558 12.219-1.742 12.559-.236.438-.979.654-1.504.571-.051-1.522-.37-11.152-.34-12.202.015-.508.527-2.24 1.09-4.008h.001c1.073-.142 2.363.534 2.495 3.08z" opacity="1" data-original="#ec3e00"></path><path fill="#bf3100" d="M51.743 83.153c-.201-.031-.37-.108-.464-.232 0 0-.959-10.502-.949-12.348.002-.43.163-1.076.408-1.828l.003-.008.003-.008c.261-.704.572-1.28.936-1.502a2.1 2.1 0 0 1 .813-.284c-.562 1.768-1.075 3.5-1.09 4.008-.03 1.05.289 10.68.34 12.202z" opacity="1" data-original="#bf3100"></path><path fill="#ffddc3" d="M50.856 84.994s-.066-.344.613-.098c.681.245 7.279.972 6.882 1.476-.398.503-3.378-.372-3.378-.372l-1.669-.258-1.591-.262z" opacity="1" data-original="#ffddc3" class=""></path><path fill="#222d61" d="m50.856 84.994-.032.346s1.103.446 2.257.494c1.154.049 2.2.439 2.803.588s1.952.351 2.405.192l.062-.242s-.944.166-1.886-.062c-.941-.229-2.262-.576-3.045-.671s-2.564-.645-2.564-.645z" opacity="1" data-original="#222d61"></path><path fill="#ec3e00" d="M58.159 85.775c.084.062.131.143.115.242-.069.458-1.477.479-1.477.479s-1.237-.526-1.431-.567c-.192-.04-.638-.307-1.141-.397-.481-.089-.92-.155-1.944-.264-.593-.389-1.037-1.081-.754-1.607.352-.653.178-1.729.151-1.876a.806.806 0 0 1 .598-.187c.909.057.93.473 1.038.612l.019.019c.148.283.369.526.643.701.571.363 1.322.911 1.372.954.188.165 1.377.72 1.481.749.086.025.747.202 1.008.34l.002.001h.001l.027.017h.001l.065.052-.06.084.114.056.002.001h.002l.026.018.089.085-.027.086.189.072.003.001.012.006h.001l.12.156c.005.101-.099.149-.245.167z" opacity="1" data-original="#ec3e00"></path><path fill="#dbaa8b" d="M58.039 85.729s-.108.097-.154.263c0 0-.393-.07-.334-.175s.329-.129.488-.088zM58.288 85.446s-.067.061-.096.164l-.208-.109c.037-.064.205-.08.304-.055zM58.03 85.188l-.076.129-.163-.086zM57.878 84.979l-.075.129-.164-.086z" opacity="1" data-original="#dbaa8b"></path><path fill="#bf3100" d="m52.281 85.268-.156-.017c-1.138-.117-1.428-.716-1.072-1.502.137-.303.2-.711.226-1.099l.001-.02c.015-.114.089-.581.399-.847.026.147.2 1.223-.151 1.876-.284.528.16 1.22.753 1.609z" opacity="1" data-original="#bf3100"></path><path fill="#222d61" d="M54.277 83.111s.974 1.324 1.082 3.053l.496.145s-.32-1.767-.821-2.746z" opacity="1" data-original="#222d61"></path><path fill="#222d61" d="M51.212 82.519s2.179.484 3.024 1.025c.899.575 1.421.518 1.421.518l.452.248s-1.084.301-1.904-.195c-.82-.495-3.002-.919-3.002-.919zM56.59 84.431s-.527.061-1.015 1.7l.596.178s.466-1.519.89-1.704z" opacity="1" data-original="#222d61"></path><path fill="#222d61" d="m52.465 83.118.014 2.556.582.055-.041-2.273z" opacity="1" data-original="#222d61"></path><path fill="#ec3e00" d="M49.387 68.322c-.718 6.04-1.742 13.887-1.945 14.26-.237.438-.98.654-1.503.571-.051-1.522-.37-11.152-.34-12.202.016-.585.694-2.798 1.35-4.818.316-.054.667.008 1.053.229.732.421 1.156 1.144 1.385 1.96z" opacity="1" data-original="#ec3e00"></path><path fill="#bf3100" d="M45.938 83.153c-.201-.031-.37-.108-.466-.232 0 0-.957-10.502-.948-12.348.002-.519.235-1.354.572-2.312l.007-.021c.397-.98.999-1.961 1.845-2.107-.655 2.021-1.334 4.233-1.35 4.818-.03 1.05.29 10.68.34 12.202z" opacity="1" data-original="#bf3100"></path><path fill="#222d61" d="m44.679 86.35-.119-.235s-.214.801.025 1.171c.238.371.964.521 1.909.54.944.019 1.475-.235 1.562-.502.086-.267.018-.894.018-.894z" opacity="1" data-original="#222d61"></path><path fill="#ffddc3" d="M44.519 86.474c.013.04-.211.537.899.725s2.637.134 2.671-.66l-.059-.721-1.994-.439-1.429.611c0-.001-.162.248-.088.484z" opacity="1" data-original="#ffddc3" class=""></path><path fill="#ec3e00" d="M47.886 86.343c-.008.217.088.412-.002.622-.107.252-.54.24-.791.092-.097-.059-.147-.176-.174-.3l-.006.221c-.042.253-.528.162-.62.038l-.078-.169c-.073.187-.347.268-.54-.006l-.071-.216c-.064.141-.204.196-.41.123-.127-.046-.169-.162-.18-.265-.126.082-.436.242-.45-.188l.009-.013c.146-.269.793-.83 1.224-1.484.415-.628.106-2.315.083-2.442.579-.236 1.424.141 1.489.194.086.071.092.518.09.753-.003.235.192.9.199 1.353.006.452.158.547.275.865.117.319-.039.604-.047.822z" opacity="1" data-original="#ec3e00"></path><path fill="#dbaa8b" d="m47.178 86.871.645-.035s-.267-.501-.565-.315a.625.625 0 0 0-.08.35zM46.396 86.843l.387.013s-.029-.255-.163-.281c-.133-.028-.224.268-.224.268zM45.76 86.773l.387.013s-.028-.256-.162-.282c-.133-.026-.225.269-.225.269zM45.137 86.535l.336.051s.002-.226-.111-.263c-.115-.037-.225.212-.225.212zM44.635 86.325l.301.046s.002-.202-.101-.235c-.102-.033-.2.189-.2.189z" opacity="1" data-original="#dbaa8b"></path><path fill="#bf3100" d="M45.796 84.798c-.431.654-1.077 1.216-1.224 1.484l-.009.013-.001-.064c.019-.634.694-1.262.795-1.436.101-.176.077-1.985.077-1.985a.787.787 0 0 1 .444-.454c.024.126.333 1.814-.082 2.442z" opacity="1" data-original="#bf3100"></path><path fill="#222d61" d="M44.512 86.661s-.022-.604.318-.762c.414-.191 2.513-.336 2.785-.032.272.305.474.671.474.671s.046-.773-.066-.976c-.11-.202-.349-.56-.611-.575-.264-.016-2.51-.003-2.625.222s-.458.948-.275 1.452zM45.384 84.601s1.308-1.453 2.121-1.256l-.024-.803s-1.492.317-2.122 1.306z" opacity="1" data-original="#222d61"></path><path fill="#222d61" d="M45.353 82.861s1.253.172 2.341 1.623l.021.553s-1.45-1.447-2.353-1.523z" opacity="1" data-original="#222d61"></path><path fill="#679c00" d="M57.019 69.474c-4.431.449-11.748.081-14.245-.066a51.877 51.877 0 0 0-.229-6.769c-.995-10.168 4.631-15.805 4.631-15.805l6.351-.006s2.618 2.642 3.663 6.582c.654 2.475.295 9.822-.171 16.064z" opacity="1" data-original="#679c00" class=""></path><path fill="#4e8000" d="M42.544 62.639c-.995-10.168 4.631-15.805 4.631-15.805l.922-.006c-2.08 3.875-4.442 8.314-4.116 12.753.176 2.388.535 6.081.593 9.923a185.69 185.69 0 0 1-1.8-.097 51.877 51.877 0 0 0-.23-6.768z" opacity="1" data-original="#4e8000" class=""></path><path fill="#ffbe00" d="M56.349 77.231c-.126 1.308-.21 2.097-.21 2.097-8.29.221-14.811-.663-14.811-.663s.221-.585.49-1.704c2.168.201 9.259.776 14.531.27z" opacity="1" data-original="#ffbe00"></path><path fill="#7a0100" d="m56.461 76.056-.112 1.176c-5.271.506-12.362-.069-14.53-.271.078-.318.158-.68.239-1.084 1.957.175 9.159.75 14.403.179z" opacity="1" data-original="#7a0100"></path><path fill="#ffbe00" d="M56.664 73.809c-.07.816-.14 1.573-.203 2.247-5.244.571-12.446-.004-14.403-.179a35.24 35.24 0 0 0 .378-2.294c1.963.143 9.095.605 14.228.226z" opacity="1" data-original="#ffbe00"></path><path fill="#be344e" d="M56.831 71.853c-.056.681-.112 1.336-.167 1.956-5.133.38-12.265-.083-14.229-.226.076-.579.146-1.206.203-1.878 2.23.107 9.937.44 14.193.148z" opacity="1" data-original="#be344e"></path><path fill="#ffbe00" d="M56.933 70.582c-.033.433-.067.855-.101 1.271-4.256.292-11.963-.04-14.192-.147.035-.422.067-.862.092-1.319 1.994.148 8.653.58 14.201.195z" opacity="1" data-original="#ffbe00"></path><path fill="#7a0100" d="M57.019 69.474c-.028.374-.057.744-.086 1.108-5.548.385-12.207-.047-14.202-.196.018-.317.032-.643.043-.978 2.497.147 9.814.515 14.245.066z" opacity="1" data-original="#7a0100"></path><path fill="#d39800" d="M44.123 77.149c-.101.614-.22 1.208-.361 1.777-.29-.026-.555-.052-.797-.076l-.119-.012a70.1 70.1 0 0 1-.758-.082l-.092-.01a27.841 27.841 0 0 1-.488-.059l-.045-.006h-.002l-.04-.006-.093-.012s.221-.585.49-1.704l.1.009.106.01c.258.023.565.05.917.079l.216.018.098.007.142.012.021.001c.158.014.323.025.493.039z" opacity="1" data-original="#d39800"></path><path fill="#520100" d="M44.28 76.051c-.047.373-.099.74-.157 1.099l-.211-.015c-.17-.014-.335-.025-.493-.039l-.021-.001-.142-.012-.098-.007-.216-.018c-.352-.029-.659-.056-.917-.079l-.106-.01-.1-.009c.078-.318.158-.68.239-1.084l.092.007.098.009.22.02.114.01.723.059.123.009c.26.02.547.04.852.061z" opacity="1" data-original="#520100"></path><path fill="#d39800" d="M44.491 73.716a37.426 37.426 0 0 1-.211 2.335 114.15 114.15 0 0 1-.854-.061l-.123-.009-.723-.059-.114-.01-.22-.02-.098-.009-.092-.007a35.24 35.24 0 0 0 .378-2.294l.087.006.13.01.166.011.111.008.062.005.095.007.207.014.204.014.46.028c.119.007.24.015.367.021z" opacity="1" data-original="#d39800"></path><path fill="#9b293e" d="M44.567 71.79c-.014.646-.039 1.29-.076 1.926l-.166-.01-.367-.021-.46-.028-.204-.014-.207-.014-.095-.007-.062-.005-.111-.008-.166-.011-.13-.01-.087-.006c.076-.579.146-1.206.203-1.878l.086.005.092.004.097.005c.134.007.28.013.439.019l.215.01.021.001.129.006.443.019.255.011z" opacity="1" data-original="#9b293e" class=""></path><path fill="#d39800" d="M44.581 70.509c0 .426-.005.856-.014 1.281l-.151-.006-.255-.011-.443-.019-.129-.006-.021-.001-.215-.01-.439-.019-.097-.005-.092-.004-.086-.005c.035-.422.067-.862.092-1.319.424.033 1.059.077 1.85.124z" opacity="1" data-original="#d39800"></path><path fill="#520100" d="M44.581 70.509c-.791-.047-1.426-.091-1.851-.123.018-.317.032-.643.043-.978.455.026 1.07.061 1.8.097.004.333.008.667.008 1.004z" opacity="1" data-original="#520100"></path><path fill="#679c00" d="M43.595 74.851c-.024.449-.239.803-.479.789-.24-.015-.412-.391-.383-.84.028-.449.242-.802.479-.787.235.013.407.388.383.838z" opacity="1" data-original="#679c00" class=""></path><path fill="#be344e" d="M45.389 74.961c-.017.45-.226.808-.466.798-.24-.011-.419-.384-.398-.834.022-.449.23-.805.466-.795.237.01.414.382.398.831z" opacity="1" data-original="#be344e"></path><path fill="#7a0100" d="M47.185 75.042c-.009.45-.212.811-.452.805-.241-.006-.425-.377-.411-.826.014-.45.216-.81.452-.804.236.007.42.375.411.825z" opacity="1" data-original="#7a0100"></path><path fill="#679c00" d="M48.982 75.093c-.002.45-.198.814-.439.812-.24-.002-.431-.37-.425-.819.006-.451.202-.813.438-.812.238.002.427.369.426.819z" opacity="1" data-original="#679c00" class=""></path><path fill="#be344e" d="M50.78 75.113c.007.45-.185.817-.425.819-.241.002-.438-.362-.439-.812s.189-.815.426-.817c.236-.002.432.36.438.81z" opacity="1" data-original="#be344e"></path><path fill="#7a0100" d="M52.58 75.104c.014.449-.171.82-.412.826-.24.006-.443-.354-.452-.805-.01-.45.175-.819.411-.825.237-.006.439.353.453.804z" opacity="1" data-original="#7a0100"></path><path fill="#679c00" d="M54.379 75.063c.021.449-.156.823-.397.833s-.449-.348-.467-.797c-.017-.45.162-.821.399-.832.235-.009.444.346.465.796z" opacity="1" data-original="#679c00" class=""></path><path fill="#be344e" d="M56.179 74.993c.028.448-.144.825-.384.84-.241.014-.456-.34-.48-.789-.024-.45.147-.824.385-.839.236-.014.45.339.479.788z" opacity="1" data-original="#be344e"></path></g></svg>