<svg xmlns="http://www.w3.org/2000/svg" viewBox="0 0 1440 320">
    <path fill="#a78bfa" fill-opacity="1"
        d="M0,128L6.2,133.3C12.3,139,25,149,37,149.3C49.2,149,62,139,74,112C86.2,85,98,43,111,21.3C123.1,0,135,0,148,10.7C160,21,172,43,185,69.3C196.9,96,209,128,222,149.3C233.8,171,246,181,258,176C270.8,171,283,149,295,165.3C307.7,181,320,235,332,256C344.6,277,357,267,369,218.7C381.5,171,394,85,406,64C418.5,43,431,85,443,138.7C455.4,192,468,256,480,245.3C492.3,235,505,149,517,96C529.2,43,542,21,554,48C566.2,75,578,149,591,176C603.1,203,615,181,628,165.3C640,149,652,139,665,154.7C676.9,171,689,213,702,224C713.8,235,726,213,738,218.7C750.8,224,763,256,775,250.7C787.7,245,800,203,812,176C824.6,149,837,139,849,117.3C861.5,96,874,64,886,53.3C898.5,43,911,53,923,80C935.4,107,948,149,960,138.7C972.3,128,985,64,997,64C1009.2,64,1022,128,1034,154.7C1046.2,181,1058,171,1071,154.7C1083.1,139,1095,117,1108,128C1120,139,1132,181,1145,202.7C1156.9,224,1169,224,1182,202.7C1193.8,181,1206,139,1218,154.7C1230.8,171,1243,245,1255,234.7C1267.7,224,1280,128,1292,85.3C1304.6,43,1317,53,1329,90.7C1341.5,128,1354,192,1366,202.7C1378.5,213,1391,171,1403,165.3C1415.4,160,1428,192,1434,208L1440,128L1440,320L0,320Z"></path>
</svg>